<svg viewBox="0 0 95 95" fill="none" xmlns="http://www.w3.org/2000/svg"><g clip-path="url(#clip0_56_237)"><path d="m52.802 14.18.197.025c.895.118 1.792.239 2.649.53q.157.03.318.051c.335.052.651.139.975.238.162.045.317.08.481.11.332.065.65.162.97.262l.338.105.165.051q.308.095.618.185c.181.057.352.137.527.212q.164.055.332.108c.292.096.566.211.844.342.191.088.386.165.582.242q.422.17.842.348l.106.045a26 26 0 0 1 1.871.888 33 33 0 0 1 4.205 2.542q.292.21.591.41c.419.285.824.58 1.222.894q.152.12.305.238c.324.252.643.505.948.778.131.115.266.222.402.33.401.327.773.683 1.148 1.04q.185.174.373.347c.506.47.99.952 1.453 1.463l.25.27q.413.45.795.926.196.238.402.467c1.51 1.71 2.738 3.683 3.884 5.649q.076.129.156.256c.24.388.434.79.622 1.205l.098.213.2.435.274.595c.383.825.731 1.65 1.029 2.51.088.253.186.497.3.74 1.003 2.281 1.414 4.935 1.768 7.387l.051.347c.203 1.403.237 2.82.257 4.234l.002.18c.022 1.586.033 3.156-.175 4.732l-.028.214a30 30 0 0 1-.41 2.435 12 12 0 0 0-.066.352c-.123.704-.3 1.393-.479 2.084l-.032.125q-.095.372-.199.742l-.042.15a28 28 0 0 1-.771 2.366l-.146.392a38 38 0 0 1-.609 1.535q-.08.197-.157.395c-.139.347-.293.685-.45 1.024l-.091.198a30 30 0 0 1-.855 1.683l-.1.187-.162.296-.162.297a19 19 0 0 1-.779 1.318c-.913 1.448-1.872 2.862-2.99 4.162l-.255.3q-.457.54-.937 1.06-.222.241-.436.488a8 8 0 0 1-.506.529c-.095.093-.095.093-.192.23l-.068.09h-.116l-.115.231h-.116l-.038.097c-.103.178-.243.3-.395.434l-.094.085-.191.17-.243.22q-.434.394-.89.76-.23.19-.454.387c-.93.809-1.935 1.544-2.953 2.239l-.186.127c-1.066.722-2.165 1.407-3.322 1.974q-.359.18-.71.37a65 65 0 0 1-1.607.817l-.25.127c-.232.119-.46.217-.708.298l-.178.058c-.147.043-.147.043-.263.043v.115c-.412-.008-.62-.2-.924-.462l-.168-.136a12.5 12.5 0 0 1-2.028-2.06l-.141-.173c-.38-.47-.68-.967-.957-1.502l-.056-.11c-.312-.613-.312-.613-.29-.988h-.116c-.404-1.748-.177-3.422.766-4.955.312-.49.668-.933 1.055-1.364q.122-.137.243-.276c.392-.447.827-.831 1.287-1.206l.097-.08c.987-.807 2.058-1.501 3.14-2.174l.134-.084a76 76 0 0 1 3.986-2.317 65 65 0 0 0 3.562-2.111q.266-.167.534-.332c1.435-.883 1.435-.883 2.763-1.917l.15-.131q.216-.192.428-.39l.118-.108c.821-.785 1.491-1.798 1.518-2.965-.032-.97-.518-1.576-1.174-2.242l-.126-.134c-.105-.11-.105-.11-.279-.155a76 76 0 0 0 .016 1.048c.005.52.035.963.273 1.436.09.268.095.53.058.81a.94.94 0 0 1-.578.404 10 10 0 0 1-.456.038l-.122.02c-.078.156-.074.309-.086.48-.048.635-.157 1.194-.647 1.643-.143.115-.174.13-.365.13v.116c-.599.031-1.065.008-1.556-.358-.202-.275-.27-.586-.35-.913-.266.043-.51.13-.763.22l-.132.047q-.417.15-.827.318c-.212.084-.43.154-.648.224l-.173.057q-.135.006-.271.004l-.141-.002-.108-.002q0 .059.003.118c.042 2.08.042 2.08-.466 2.714l-.087.124c-.213.298-.386.511-.761.58-.664.105-1.473.146-2.099-.126-.31-.234-.48-.541-.648-.885L63.922 67l-.069-.142H63.7l-2.221.005a92 92 0 0 1-3.039-.03l-.22-.006a18 18 0 0 1-1.189-.08c-.488-.055-.488-.055-.933.113a3 3 0 0 0-.334.46c-.44.406-1.026.32-1.592.3a1.55 1.55 0 0 1-.719-.242l-.195-.112a2 2 0 0 1-.383-.408c-.099-.137-.099-.137-.231-.23-.212-.02-.212-.02-.404 0v.115h-.232v.115l-.57.226c-.18.063-.18.063-.354.063v.116l-.405.058-.057.173a5 5 0 0 1-.423.166l-.382.136q-.248.094-.492.2c-.727.307-.727.307-1.015.307v.115l-.278.087-.157.049c-.143.038-.143.038-.316.038v.115l-.13.04c-.302.098-.594.2-.881.336a7 7 0 0 1-.836.316c-.236.08-.464.177-.693.275-.422.177-.852.334-1.28.494-.494.185-.985.37-1.464.59a7 7 0 0 1-.64.26 11 11 0 0 0-.953.405c-.339.154-.687.274-1.04.394-.176.057-.176.057-.289.184a5 5 0 0 1-.263.109c-.497.193-.972.42-1.447.663-.3.153-.3.153-.428.153v.115h-.231v.116l-.102.046c-1.432.658-2.781 1.436-4 2.439l-.257.198-.13.102-.271.209c-1.783 1.397-3.227 3.437-3.644 5.696a7.8 7.8 0 0 0 .14 2.636q.031.203.058.404c-.213-.038-.363-.13-.545-.245l-.201-.126-.113-.072-.408-.25a33 33 0 0 1-5.263-4.01 24 24 0 0 0-.412-.375 27 27 0 0 1-1.16-1.107l-.32-.317a13 13 0 0 1-1.006-1.108 8 8 0 0 0-.399-.454c-.216-.236-.42-.476-.617-.728a39 39 0 0 0-.401-.496c-1.94-2.374-3.45-4.974-4.79-7.726l-.058-.121a24 24 0 0 1-.66-1.472l-.144-.34c-.134-.32-.25-.644-.365-.971q-.088-.239-.184-.473a10 10 0 0 1-.29-.847q-.119-.39-.25-.774a19 19 0 0 1-.535-2.01l-.11-.493-.037-.17-.037-.163-.033-.147a4 4 0 0 0-.153-.43 12 12 0 0 1-.087-.448l-.041-.234-.022-.122a7 7 0 0 0-.08-.348c-.096-.428-.129-.868-.175-1.304l-.072-.671q-.04-.39-.09-.778c-.124-1.02-.136-2.027-.134-3.053v-.357c.007-4.441.007-4.441.443-6.48.044-.218.074-.438.106-.659.16-1.067.428-2.12.698-3.163l.087-.343c.207-.805.455-1.605.754-2.381l.108-.286c.206-.544.415-1.086.643-1.62l.068-.166c.174-.428.365-.847.564-1.264l.202-.433a36.6 36.6 0 0 1 2.691-4.725l.096-.145c.406-.608.83-1.194 1.29-1.762l.232-.293q.383-.474.782-.936l.26-.306q.466-.551.954-1.083.166-.183.327-.371c.243-.279.503-.54.765-.8l.141-.142c.249-.248.501-.487.767-.716q.242-.212.475-.431l.197-.182.334-.31a17 17 0 0 1 1.135-.937l.299-.236c2.354-1.88 5.03-3.626 7.812-4.789q.299-.127.588-.268c.29-.135.58-.24.885-.332a3 3 0 0 0 .38-.169c.296-.152.606-.253.92-.358.438-.146.438-.146.867-.318.264-.11.534-.184.81-.26l.317-.089.15-.042q.166-.049.327-.105c.158-.05.3-.072.466-.085l.153-.014.114-.008v-.116l.14-.023a33 33 0 0 0 1.558-.325 33 33 0 0 1 3.142-.556l.219-.028.197-.025c.17-.022.17-.022.316-.056.197-.035.392-.04.591-.043l.129-.003.94-.022.133-.004q.387-.01.77-.043c2.28-.175 4.614-.013 6.875.283" fill="#06415a"/><path d="M34.4 74.5c-8.067 4.34-5.664 10.312-5.8 10.3 0 0 5.9 4.5 15.9 5.1 10 .2 16.9-2.6 16.9-2.6l-1.2-.8c-.624-.49-.95-.822-1.5-1.5-.47-.511-.69-.84-1-1.5-.373-.836-.76-1.314-1-2-.133-.67-.168-1.092-.1-2 .167-.883.245-1.431.947-2.651A15.5 15.5 0 0 1 59.1 75c1.64-1.338 2.612-2.259 5.7-4 1.691-1.005 2.95-1.689 6-3.5 1.756-1.126 2.834-1.773 4.2-3l.5-.5c.523-.665.753-1.093 1-2 .044-.386.05-.604 0-1-.085-.37-.188-.593-.4-1-.518-.772-.871-1.049-1.2-1.1-.051.82-.033 1.28.1 2.1.223.357.282.578.3 1-.259.376-.292.466-.8.5H74v.5c-.131.212.179 1.608-1 1.9l-.5.1c-.681.059-1.563-.943-1.3-1.5L70 64c-.637.183-1.003.68-1.9.6-.103-.007-.098.726-.1 1.9-.046.423-.142.639-.4 1 0 0-.545.63-.963.7-.419.07-.666.073-1.137 0 0 0-1.26-.288-1.652-1.4H58.5s-1.429-.085-1.5-.1c-.071-.016-.285.01-.5 0s-1.248.644-1.5.8-1 0-1 0-.767-.234-1-.5c-.304-.544-.622-.564-1.5 0l-7 2.5-6.5 3c-1.736.966-2.673 1.444-3.6 2" fill="#fff"/><path d="m47.229 16.804.685.001c1.995.003 1.995.003 2.59.126q.158.015.315.025l.18.013.192.013c.48.035.943.083 1.413.193.188.04.374.07.565.1.389.058.774.13 1.16.205l.193.037q.562.11 1.126.223v.116l.106.017c.605.103 1.227.225 1.796.46.139.05.277.082.421.115.416.102.818.237 1.222.376l.617.211.218.075c.166.067.278.137.416.248.148.05.148.05.307.083.237.06.422.132.628.262.174.099.361.163.548.232a.8.8 0 0 1 .243.142c.13.095.262.153.411.214.23.098.45.212.673.324l.155.078c.743.375 1.465.779 2.178 1.208l.115.07c.838.505 1.66 1.052 2.415 1.676.144.116.292.223.442.33.269.194.525.397.78.609q.196.162.397.322c.638.51 1.241 1.045 1.814 1.629q.156.151.325.29c.223.192.417.404.614.623.226.25.463.488.704.724.293.29.566.584.822.908q.17.215.351.422c.36.417.691.852 1.017 1.296l.248.334c1.191 1.606 2.175 3.306 3.088 5.083l.074.144.208.408.064.123c.101.2.196.4.275.611a3.6 3.6 0 0 1-.952-.221 13 13 0 0 0-.71-.209 19 19 0 0 1-1.758-.549 9 9 0 0 0-.751-.235c-1.978-.544-3.815-1.487-5.596-2.49a41 41 0 0 0-.884-.481c-.816-.433-1.62-.88-2.409-1.362l-.14-.086a48 48 0 0 1-2.082-1.374l-.396-.27a42 42 0 0 1-2.01-1.444c-.96-.739-1.888-1.339-3.157-1.236-.537.074-1.066.272-1.566.479a10 10 0 0 1-1.007.33l-.183.054c-.992.286-1.688.218-2.604-.267-.501-.278-.93-.66-1.364-1.032a21 21 0 0 0-.927-.735 40 40 0 0 1-1.9-1.527c-.469-.404-.944-.79-1.444-1.156l-.103-.105c-.18-.095-.307-.06-.505-.03-.858.12-1.696.003-2.512-.27-.578-.064-1.16-.098-1.636.271l-.156.134-.206.163q-.225.178-.447.358c-.24.196-.488.38-.737.566q-.267.2-.531.405a80 80 0 0 1-2.235 1.657l-.325.239a16.6 16.6 0 0 1-2.103 1.304c-.706.378-1.342.896-1.964 1.397-.586.465-1.218.856-1.853 1.25l-.136.084a82 82 0 0 1-1.067.65 74 74 0 0 1-2.569 1.49c-.8.443-1.592.896-2.372 1.373a10 10 0 0 1-.752.398q-.316.16-.623.335a40 40 0 0 1-3.536 1.722 53 53 0 0 0-1.794.825l-.939.445a33 33 0 0 1-2.358 1.014c-.36.138-.713.285-1.06.452-.13.053-.13.053-.303.053.534-3.585 3.636-7.782 5.964-10.446q.21-.244.41-.497c.322-.396.676-.762 1.027-1.132q.158-.167.312-.337a26 26 0 0 1 1.59-1.572l.09-.084q.434-.4.899-.766.251-.2.499-.403c.442-.361.886-.717 1.344-1.058l.116-.087a27 27 0 0 1 2.022-1.358l.113-.07q.374-.228.753-.45l.134-.078a44 44 0 0 1 1.78-.987l.162-.085c.362-.188.73-.36 1.103-.526l.253-.115c.27-.12.547-.225.825-.33q.55-.212 1.085-.454c.242-.098.487-.171.737-.246q.449-.141.893-.293.29-.099.583-.183c.182-.05.182-.05.327-.11a4 4 0 0 1 .443-.141l.167-.044.176-.045.182-.047.728-.185a13 13 0 0 1 2.384-.35v-.115l1.066-.142.36-.048q.616-.082 1.232-.157l.158-.019c.878-.102 1.75-.112 2.634-.108" fill="#fefefe"/><path d="M63.796 35.165c.217.05.342.113.474.297.14.25.228.503.298.78l.042.164q.041.163.077.328l.038.155.031.139c.103.19.103.19.542.36v2.831h.694a97 97 0 0 1 .061 3.985v.748l-.004 1.45 1.56.058-.012-.41-.012-.403-.009-.276-.02-.801-.016-.4-.008-.25-.01-.226c.03-.181.03-.181.156-.284l.163-.07.148-.075.157-.074.178-.084.188-.089a26 26 0 0 0 1.524-.775c.443-.241.443-.241.694-.233.21.085.401.197.596.31l.341.194.171.097q.346.195.698.382.06.03.12.064c.263.138.529.258.808.36.097.038.097.038.155.096q.007.205.006.41v.124l-.002.394v.266l-.004.655h1.387l-.028-.659a67 67 0 0 1-.033-2.848l.003-1.752 4.16-.057v4.796h1.099q.391.007.784.022l.19.005.182.007.16.005c.129.019.129.019.244.134.032.115.032.115.056.258l.028.16.028.175.03.182.09.554.024.15c.06.373.107.746.149 1.122l.024.214c.318 2.915.285 5.95-.124 8.851q-.033.263-.059.525c-.024.188-.074.368-.123.551-.088.334-.16.667-.217 1.008l-.021.127-.021.121q-.064.372-.153.738l-.048.2a46 46 0 0 1-1.042 3.536 5 5 0 0 1-.257.663q-.176.38-.329.769l-.044.112-.129.325c-.168.42-.35.828-.559 1.231a6 6 0 0 0-.192.445q-.11.22-.224.439a1.6 1.6 0 0 0-.123.37h-.116l-.014.151c-.05.224-.145.355-.274.542-.045.129-.045.129-.058.231h-.116l-.05.127a7.7 7.7 0 0 1-.68 1.264l-.09.142-.187.29-.257.403a29 29 0 0 1-1.047 1.53l-.126.172c-.31.42-.638.826-.969 1.23a34 34 0 0 0-.408.509q-.298.371-.61.73l-.093.108a11 11 0 0 1-.582.615 7 7 0 0 0-.299.329c-.22.255-.456.494-.695.731l-.124.126q-.352.352-.73.676a5 5 0 0 0-.294.286c-.21.214-.44.4-.675.588q-.226.184-.448.375c-1.394 1.193-2.925 2.225-4.504 3.154a29 29 0 0 0-.505.307l-.216.133a2 2 0 0 1-.473.22l-.153.055-.058.173c-.262.182-.575.274-.88.358l-.102.047-.058.173c-.25.025-.371.022-.584-.119l-.274-.261c-.325-.32-.59-.684-.855-1.054-.115-.184-.115-.184-.252-.242a6 6 0 0 1-.23-.578h-.117c-.335-.736-.245-1.941-.057-2.715h.115l.02-.154c.182-.933 1.019-1.725 1.656-2.389l.085-.089c.392-.407.8-.776 1.244-1.124l.187-.151a22 22 0 0 1 1.547-1.12l.206-.14a67 67 0 0 1 1.628-1.055q.372-.235.74-.474a57 57 0 0 1 1.532-.947l.109-.065.615-.366a51 51 0 0 0 2.073-1.308q.24-.156.48-.308a25 25 0 0 0 3.192-2.388l.099-.087c.668-.59 1.202-1.248 1.692-1.993l.112-.17c.288-.458.441-.93.581-1.448l.066-.21c.083-.339.062-.686.057-1.032l-.001-.211-.006-.512h-.116a1.6 1.6 0 0 1-.115-.693h-.116q-.022-.064-.047-.13c-.222-.575-.532-1.071-.993-1.488l-.111-.11c-.347-.332-.72-.586-1.13-.836l-.125-.078-.113-.069-.081-.063v-.115l-.141-.026c-.148-.032-.148-.032-.206-.09a9 9 0 0 1-.022-.321 7 7 0 0 0-.138-.962c-.086-.438-.133-.881-.181-1.325-.054-.594-.054-.594-.24-1.154-.068-.136-.066-.233-.062-.384l.003-.14.005-.106h-.116l-.036-.12c-.226-.69-.609-1.131-1.235-1.498-.282-.135-.574-.24-.867-.346l-.239-.098c-.25-.093-.51-.145-.77-.202a27 27 0 0 1-1.584-.426l-.119-.035q-.302-.09-.6-.194c-.35-.118-.711-.169-1.075-.228a3.5 3.5 0 0 1-.715-.179 2.4 2.4 0 0 0-.587-.145 10 10 0 0 1-.899-.17v-.115l-.14-.006a22 22 0 0 1-1.467-.138l-.187-.023-.175-.022-.158-.02c-.126-.022-.126-.022-.242-.08-.866-.097-1.747-.066-2.617-.065h-1.482c-.64.001-1.276.021-1.905.139l-.353.066q-.178.035-.356.066a9 9 0 0 0-1.28.328c-.155.044-.155.044-.386.044v.116l-.104.036a4.6 4.6 0 0 0-1.11.6l-.132.088c-.433.346-.487.894-.586 1.41-.033.12-.033.12-.148.293h-.116l-.021.145-.03.19-.028.19c-.036.168-.036.168-.152.341-.404.08-.77-.03-1.145-.169a5 5 0 0 0-.596-.148 4 4 0 0 1-.854-.268 2 2 0 0 0-.352-.108v-.115l-.116-.011a1.5 1.5 0 0 1-.635-.336c-.05-.17-.05-.17 0-.347a1.5 1.5 0 0 1 .612-.48c.309-.151.603-.321.897-.499l.148-.087c.31-.186.6-.388.885-.61l.333-.245.158-.117c.145-.1.145-.1.272-.157.136-.076.157-.149.22-.29q.1-.15.206-.296c.233-.328.298-.514.256-.917-.11-.485-.368-.742-.751-1.04l-.148-.134c-.246-.17-.52-.247-.806-.329-.202-.057-.202-.057-.4-.135-.327-.124-.663-.211-1.001-.302l-.193-.053a11 11 0 0 0-1.266-.26l-.51-.087-.122-.021-.12-.021-.105-.018c-.179-.039-.354-.093-.53-.143v-3.062h3.005v1.444h1.098V40.22l.636-.347c.138-.105.265-.206.393-.321l.182-.16.087-.077c.415-.365.415-.365.551-.373.116.064.116.064.257.192.25.21.54.347.83.494l.476.243c.113.06.113.06.17.118q.009.218.007.436v.138l-.001.77-.002.83v.846l-.003 1.66h1.618v-2.947h3.351v1.907h1.965l-.002-.743-.001-.586q0-.31-.002-.619v-.71l-.002-.225v-.39c.007-.136.007-.136.065-.194h.578v-2.6l.346-.173c.08-.102.08-.102.12-.224l.055-.14.056-.157c.154-.421.319-.827.528-1.224l.059-.113c.18-.334.301-.43.685-.365" fill="#ea8837"/><path d="M12.597 53.683c.222.1.298.197.423.408.51.827 1.151 1.44 2.12 1.672.17.016.338.017.51.015h.138c.29-.005.564-.03.846-.105.158-.032.31-.027.47-.025v.133q0 1.613.005 3.224.003.78.002 1.56 0 .68.003 1.359.002.36.001.72l.002.678v.247c-.006.698.178 1.14.623 1.671v.116l.099.048q.132.068.263.14l.14.076.138.076c.406.155.863.13 1.292.13h1.067c.568 0 1.136-.007 1.704-.033l.144-.006c1.766-.092 3.488-.543 5.04-1.396.252-.135.252-.135.417-.124.098.049.098.049.213.164q.144.062.29.116v.115l.107.032.47.142.148.044.137.042q.061.02.125.038c.11.05.11.05.188.135.114.104.19.124.34.155l.14.03.146.029.148.03.362.075v.115q.353.06.707.112c.224.034.444.072.665.123.857.173 1.776.126 2.646.129q.207 0 .416.004c1.482.033 1.482.033 2.789-.599.345-.356.345-.356.52-.809h.116l.057-8.899c.405.058.405.058.542.118.53.194 1.28.1 1.79-.103.473-.225.815-.463 1.135-.882.232.049.382.157.578.29l.29.115.115.115c.187.077.378.145.568.213.183.076.183.076.29.161.195.14.417.195.644.266l.402.127c.123.044.235.098.35.158v.115l.152.021c.191.037.342.092.52.17.294.128.59.233.896.332.2.067.392.145.587.225q.28.109.564.206c.274.096.538.202.8.324.127.054.254.097.385.138.17.055.325.118.484.203.224.117.453.186.696.253.116.035.116.035.174.093q.008.116.008.231v1.034l-.001.187c-.001.941-.004 1.884-.065 2.824l-.005.133c-.014.21-.04.315-.179.476q-.075.06-.155.12c-.284.223-.446.414-.493.78.003.352.021.65.159.976.045.14.044.26.037.405l-.175.063c-.453.166-.893.344-1.33.55-.45.21-.901.364-1.384.485v.115l-.107.022c-.47.106-.913.266-1.365.433q-.536.198-1.078.383l-.129.045a1.6 1.6 0 0 1-.557.1v.115l-.217.069a10 10 0 0 0-.812.32c-.14.055-.276.105-.419.151-.35.115-.693.25-1.037.385-.386.15-.771.298-1.166.426a3 3 0 0 0-.361.148c-.403.183-.811.346-1.233.482l-.27.09-.14.05-.127.043c-.112.032-.112.032-.285.032v.115l-.174.068a12 12 0 0 0-1.155.51 6 6 0 0 1-.539.22c-.447.152-.86.355-1.279.571q-.248.129-.498.254c-2.003 1.016-3.933 2.183-5.623 3.67q-.152.132-.307.262a3 3 0 0 0-.383.38q-.239.28-.49.548c-.697.77-1.297 1.623-1.687 2.59-.273-.027-.395-.133-.589-.322a8 8 0 0 0-.64-.552 3.6 3.6 0 0 1-.574-.568 3 3 0 0 0-.318-.305 12 12 0 0 1-.722-.687l-.608-.612a16 16 0 0 1-1.046-1.193q-.17-.206-.35-.402c-.467-.52-.881-1.085-1.297-1.647l-.1-.136a21 21 0 0 1-.724-1.054 177 177 0 0 1-.66-1.017l-.099-.152a33 33 0 0 1-.735-1.21l-.112-.188-.105-.18-.095-.162c-.068-.13-.068-.13-.068-.246h-.115l-.045-.105a3 3 0 0 0-.36-.646q-.06-.138-.118-.278c-.097-.222-.213-.434-.326-.648a1.7 1.7 0 0 1-.134-.519h-.115l-.065-.177q-.152-.401-.316-.8-.12-.3-.233-.603L15 64.575l-.086-.238a2.3 2.3 0 0 0-.205-.445c-.135-.233-.209-.484-.291-.74l-.055-.164a14 14 0 0 1-.286-.975c-.033-.128-.033-.128-.092-.26-.07-.184-.1-.364-.134-.558a4 4 0 0 0-.246-.849 3.4 3.4 0 0 1-.223-.85 10 10 0 0 0-.127-.628 37 37 0 0 1-.383-1.974l-.023-.134c-.195-1.145-.195-1.145-.212-1.723l-.004-.118-.018-.622z" fill="#eb8837"/><path d="m39.526 6.125.125.066c.282.15.547.314.8.512v.116l.172.058c.773.89 1.058 1.897.992 3.054-.051.664-.488 1.432-.983 1.88-.92.694-1.69.815-2.84.729-.64-.1-1.175-.523-1.553-1.033-.329-.51-.449-.963-.47-1.568a1.7 1.7 0 0 0-.704.116c-.319.115-.319.115-.509.115v.116l-.347.058v.115l-.093.037c-.367.155-.69.351-1.02.574l-.16.108c-.393.267-.757.553-1.11.87q-.196.165-.396.322c-.341.278-.65.58-.96.892l-.27.272c-.238.238-.471.476-.691.73-.216.248-.444.482-.677.715l-.398.4q-.207.206-.412.414l-.262.262-.125.126-.115.115-.101.102c-.086.071-.086.071-.202.071v.115c-.095.094-.095.094-.22.2-.174.146-.174.146-.337.305-.079.073-.079.073-.194.073v.116a7 7 0 0 1-.358.289l-.11.086-.23.175-.302.236c-1.388 1.09-2.97 2.1-4.663 2.623l-.172.059c-.36.117-.73.201-1.1.288l-.223.054c-.91.196-1.936.221-2.838-.027a4 4 0 0 0-.528-.07c-.109-.015-.109-.015-.224-.072l.046.104c.505 1.239.407 2.829.127 4.114l-.027.13c-.233 1.089-.676 2.128-1.244 3.083q-.15.254-.285.518c-.224.411-.49.795-.755 1.18l-.07.103c-.701 1.018-1.511 1.96-2.342 2.873l-.247.277c-.326.367-.668.715-1.018 1.06-.314.31-.622.62-.91.955-.157.179-.328.344-.498.511-.246.243-.486.486-.709.75-.127.148-.262.289-.397.431a13 13 0 0 0-1.668 2.286l-.09.148c-.246.441-.344.942-.46 1.43-.028.098-.028.098-.086.156a8 8 0 0 0 0 .347l.184.03c.447.075.861.15 1.26.374l.178.098c.512.403.9.944 1.02 1.593.102.99-.033 1.937-.659 2.748-.509.541-1.285.882-2.02.914q-.228 0-.458-.004l-.23.002a3.45 3.45 0 0 1-2.358-.915c-.792-.852-1.1-1.764-1.095-2.908v-.117c.003-.586.032-1.134.191-1.7l.055-.209c.265-.886.742-1.698 1.274-2.449l.096-.142a15 15 0 0 1 1.344-1.692q.228-.25.443-.512c.082-.08.082-.08.197-.08l.043-.1c.087-.158.193-.266.32-.393l.151-.15.158-.156.154-.154c.217-.215.434-.428.667-.627.35-.3.668-.636.992-.964.394-.398.786-.792 1.214-1.155q.174-.158.346-.318.288-.267.585-.524c.241-.207.46-.435.68-.664.122-.112.122-.112.238-.112l.045-.103c.077-.14.16-.225.276-.334.285-.278.529-.582.777-.892l.162-.2c1.474-1.804 2.736-3.838 2.738-6.233l.002-.184c.002-1.22-.401-2.222-1.238-3.112a5.6 5.6 0 0 0-.913-.673l-.159-.1c-.423-.252-.867-.374-1.343-.478l-.174-.04c-.425-.08-.85-.087-1.282-.09l-.177-.001c-1.041.004-1.805.36-2.568 1.063a3.43 3.43 0 0 0-.962 2.464q.008.18.02.36l.012.193c.074.637.411 1.132.86 1.574.116.087.2.117.341.14v.116l.596.004.171.001h.164l.151.002c.141-.002.141-.002.305-.065.02-.174.02-.174-.091-.264l-.122-.097c-.38-.32-.616-.635-.666-1.148a8 8 0 0 1-.006-.394l-.003-.133c0-.553.192-.899.568-1.296.49-.45 1.06-.689 1.721-.68h.146c.402.011.744.087 1.111.256l.14.061c.678.336 1.015.886 1.305 1.557.226.678.083 1.63-.213 2.261a4.8 4.8 0 0 1-.596.86l-.135.17a2.6 2.6 0 0 1-.508.454l-.104.074c-1.297.888-2.754 1.182-4.303.923l-.35-.072-.16-.034a3.7 3.7 0 0 1-.895-.348 4 4 0 0 0-.349-.158c-1.012-.454-1.809-1.508-2.223-2.506-.29-.766-.46-1.493-.461-2.314l-.002-.185c0-.329.021-.602.128-.916q.041-.165.08-.332c.345-1.434 1.1-2.543 2.344-3.363 1.012-.613 1.994-.853 3.163-.84q.245.003.488.001c.892 0 1.68.147 2.528.427l.184.059c.356.116.699.247 1.037.407l-.08-.2c-.427-1.077-.855-2.236-.852-3.407v-1.279c0-.308 0-.308.065-.372q.027-.159.047-.318c.054-.333.152-.596.3-.896l.063-.149c.572-1.349 1.666-2.356 3.016-2.901 1.463-.558 3.128-.627 4.582.007 1.334.648 2.385 1.701 2.914 3.101q.125.373.23.751l.032.11c.273 1.254-.087 2.795-.76 3.851-.347.517-.857 1.264-1.482 1.453l-.1.018v.116l-.356.163c-.44.181-.809.27-1.288.263l-.153.002c-.632-.003-1.136-.186-1.613-.602-.644-.682-.955-1.417-.949-2.353.024-.693.32-1.2.812-1.674a2.08 2.08 0 0 1 1.484-.5c.214.028.372.089.56.193l.11.062c.298.174.577.381.815.632v.115h.23c.096-.25.13-.455.127-.722l-.001-.19a4 4 0 0 0-.067-.532h-.116l-.058-.148c-.319-.548-.893-.827-1.484-.997-.906-.202-1.774-.032-2.56.451a7 7 0 0 0-.579.463l-.11.095c-.63.586-1.02 1.377-1.053 2.24.003 1.459.274 2.757 1.221 3.906l.118.148c.667.794 1.529 1.218 2.555 1.338 2.476.185 4.877-.985 6.735-2.56q.18-.155.358-.313l.154-.135c.422-.377.821-.777 1.222-1.176l.087-.087c.334-.333.657-.671.964-1.03l.289-.317q.247-.27.487-.546.213-.244.434-.481a14 14 0 0 0 .664-.761c.459-.567.967-1.086 1.485-1.599.209-.208.408-.42.6-.645.253-.292.537-.55.83-.801q.125-.11.248-.225c1.805-1.678 5.202-3.735 7.734-2.368" fill="#e7211f"/><path d="m57.23 5.764.161.001a5.5 5.5 0 0 1 2.527.642c.261.14.54.245.815.354v.116l.153.044c.33.12.6.333.887.533l.154.107c.857.61 1.636 1.3 2.389 2.031l.104.102c.309.301.61.606.891.935q.193.221.392.437.245.267.484.542.224.258.458.506c.24.257.474.515.694.79.32.4.677.767 1.03 1.139q.288.308.573.62c.238.26.48.508.748.737.217.186.417.386.617.59l.435.443c.275.279.566.558.92.732a.5.5 0 0 1 .21.163c.175.166.373.255.592.355v.115l.126.047c.162.069.162.069.293.15.234.136.485.216.739.307.16.07.228.123.344.247q.2.065.405.116v.115c.085.01.085.01.173.018.204.03.382.09.573.166 1.055.413 2.366.428 3.418-.001 1.065-.468 2.024-1.215 2.494-2.312l.045-.124h.115l.02-.112c.06-.281.143-.555.222-.831.247-.874.246-1.924.047-2.813h-.115l-.065-.17a3.47 3.47 0 0 0-1.669-1.716l-.106-.052a3.68 3.68 0 0 0-2.563-.226c-.492.182-.98.495-1.26.95-.11.265-.132.492-.13.777l-.001.22c.016.23.053.405.13.621l.116.058.041-.128c.19-.408.655-.727 1.057-.912.163-.043.163-.043.347-.058l.123-.013c.582-.036 1.093.18 1.527.558.196.192.355.372.488.61l.097.174c.252.575.197 1.38.024 1.976-.296.754-.837 1.277-1.566 1.607a2.45 2.45 0 0 1-1.791.058 8 8 0 0 0-.303-.062c-.263-.048-.263-.048-.39-.112v-.115l-.127-.016c-.713-.184-1.25-1.075-1.607-1.66-.325-.583-.591-1.158-.626-1.831-.005-.143-.005-.143-.068-.307-.135-1.476.19-2.896 1.102-4.078q.111-.13.228-.256l.11-.123c.795-.837 2.003-1.47 3.168-1.528q.26-.007.523-.002.198.003.395 0c.809.001 1.532.176 2.276.497q.23.088.462.174V7.8l.148.041c.223.084.402.2.592.338l.108.079c.769.572 1.305 1.328 1.694 2.2l.052.111c.55 1.22.519 2.948.18 4.223l-.058.058q-.044.192-.083.386a6 6 0 0 1-.206.77h-.116l-.032.11c-.092.316-.195.623-.315.93h.174v-.116c.573-.303 1.157-.569 1.801-.672.106-.011.106-.011.164-.079 1.89-.497 3.788-.105 5.446.861a5 5 0 0 1 .794.584v.115l.174.058c1.15 1.327 1.46 2.856 1.387 4.565-.03.316-.097.617-.174.925l-.068.346-.047.232h-.116l-.007.137c-.128.53-.519.953-.86 1.365l-.13.177c-.323.386-.808.697-1.257.92h-.115v.116c-1.363.524-2.53.692-3.987.506l-.158-.019a1.9 1.9 0 0 1-.825-.313l-.195-.08c-.986-.442-1.825-1.35-2.214-2.354a6 6 0 0 1-.075-.224l-.062-.185a3 3 0 0 1-.076-.729v-.139a1.97 1.97 0 0 1 .253-.97l.08-.17c.336-.635.926-1.044 1.596-1.27.308-.073.617-.082.932-.087l.146-.004c.628.002 1.114.323 1.58.722.13.146.242.297.347.462l.115.174c.129.586.137 1.207-.173 1.733-.172.247-.344.492-.589.67-.121.08-.121.08-.162.255.893.092.893.092 1.704-.199.141-.124.141-.124.26-.263l.12-.133c.103-.125.195-.252.285-.387l.13-.188c.278-.518.371-1.22.245-1.794a6 6 0 0 0-.144-.388l-.06-.176a3.7 3.7 0 0 0-.691-1.21l-.091-.114c-.502-.56-1.409-.997-2.15-1.055a14 14 0 0 0-1.073.007q-.186.007-.373.008c-1 .03-2.19.526-2.879 1.252-.08.075-.08.075-.195.075l-.046.102a1.6 1.6 0 0 1-.265.35c-.297.334-.47.687-.614 1.108l-.045.13q-.066.195-.128.39l-.061.18c-.383 1.366.115 3.092.747 4.306.101.212.172.432.239.657h.115l.046.085c.3.558.604 1.091.994 1.59l.141.186c.562.745.562.745 1.188 1.433 1.734 1.734 1.734 1.734 1.847 1.85l.122.126.114.118c.111.1.21.154.344.217q.149.14.29.29c.262.268.53.525.815.77q.152.135.293.284c.15.159.15.159.303.24.161.1.258.204.38.349.195.222.398.427.617.624.339.307.665.624.989.946l.246.243a12 12 0 0 1 1.083 1.238c.407.516.78 1.035 1.11 1.604l.114.184c.87 1.432 1.249 3.126.864 4.778a4 4 0 0 1-.285.701l-.08.206a3.3 3.3 0 0 1-.44.66l-.083.11a2 2 0 0 1-.726.584h-.116v.116c-1.05.362-2.124.639-3.21.191a7 7 0 0 1-.257-.133l-.157-.085c-.51-.298-.888-.668-1.056-1.245h-.116c-.283-.796-.371-1.62-.058-2.426l.058-.15c.266-.6.753-1.02 1.34-1.297.22-.076.442-.112.672-.15l.138-.023q.168-.03.335-.056a.8.8 0 0 0-.019-.56l-.053-.151-.058-.156-.055-.156a3.5 3.5 0 0 0-.335-.71l-.12-.29a7.6 7.6 0 0 0-1.267-1.907l-.14-.156-.262-.29a6 6 0 0 1-.23-.275 5 5 0 0 0-.408-.434c-.604-.596-.604-.596-.84-.886-.118-.136-.246-.26-.373-.386l-.484-.48-.128-.126a13 13 0 0 1-.68-.73 9 9 0 0 0-.45-.466l-.49-.483a6 6 0 0 1-.376-.43q-.254-.315-.516-.622c-.734-.858-1.365-1.771-1.962-2.73l-.097-.155c-.076-.134-.076-.134-.076-.25h-.116l-.047-.119c-.143-.366-.143-.366-.327-.712a2.5 2.5 0 0 1-.203-.454l-.06-.168-.056-.165-.051-.145a3.5 3.5 0 0 1-.18-.722h-.116l-.057-.577h-.116a4 4 0 0 1-.116-1.04h-.115a178 178 0 0 1-.009-1.197c-.016-1.651-.016-1.651.356-2.27-.251.01-.251.01-.463.115-.562.14-1.133.138-1.708.137h-.14c-1.08-.002-2.004-.219-3.013-.6-.058-.02-.058-.02-.116-.043q-.376-.142-.744-.303l-.146-.062c-1.37-.6-2.611-1.47-3.756-2.421a15 15 0 0 0-.424-.334 5 5 0 0 1-.528-.477q-.17-.15-.343-.298c-.141-.127-.274-.26-.408-.395l-.165-.166-.184-.184-2.254-2.26-.229-.229c-.517-.522-.517-.522-1.064-1.013q-.189-.165-.37-.34a9.65 9.65 0 0 0-3.33-2.044 1.7 1.7 0 0 0-.667-.12l-.174.982h-.115l-.007.14c-.106.429-.338.707-.705.947a5.6 5.6 0 0 1-.848.415l-.133.052c-.65.23-1.3.147-1.948-.052v-.116l-.224-.054c-.66-.222-1.086-.855-1.408-1.44-.365-.8-.443-1.851-.14-2.684.074-.191.074-.191.154-.329l.174-.058.007-.115c.19-.653.864-1.092 1.428-1.407.628-.337 1.286-.465 1.996-.457" fill="#edba07"/><path d="m90.475 57.136.165-.004c.873-.005 1.58.385 2.207.978.643.68.975 1.53.961 2.46l-.001.177c-.01.475-.07.912-.194 1.373l-.047.187c-.435 1.586-1.52 2.907-2.62 4.086q-.216.232-.424.472c-.27.301-.566.57-.866.84l-.42.381q-.318.289-.642.57-.187.166-.37.337c-.302.28-.61.544-.93.802-.204.168-.4.346-.596.524q-.178.16-.359.317c-1.994 1.74-4.094 4.14-4.3 6.904-.047 1.02.27 1.974.956 2.739.273.293.57.528.91.737l.138.088c.722.407 1.531.522 2.347.49l.167-.003c.864-.04 1.758-.388 2.365-1.012.286-.34.468-.72.646-1.123l.068-.14c.16-.5.096-1.157-.111-1.631-.248-.467-.56-.792-1.055-1.003a4.3 4.3 0 0 0-.809-.058h-.347c.011.141.011.141.058.289a8 8 0 0 0 .231.116c.37.342.588.722.614 1.228-.018.52-.224.957-.603 1.314-.544.427-1.235.599-1.918.54-.549-.092-1.053-.454-1.386-.886-.441-.638-.533-1.205-.463-1.965.049-.214.124-.387.231-.578l.069-.139c.396-.744 1.063-1.244 1.78-1.653q.068-.037.135-.077c1.024-.519 2.604-.493 3.68-.154 1.22.478 2.14 1.325 2.676 2.532.334.933.517 2.352.137 3.294q-.076.186-.144.375c-.15.417-.371.79-.647 1.138h-.116l-.044.102c-.28.506-.92.818-1.4 1.112l-.14.093a3 3 0 0 1-.615.224l-.12.035q-.127.037-.256.071-.148.04-.294.086c-.456.13-.89.15-1.36.143l-.37-.003c-.999-.007-.999-.007-1.121-.13a8 8 0 0 0-.275-.046 5 5 0 0 1-1.575-.531l.045.095c.225.494.383 1.002.533 1.523l.061.209c.246 1.008.223 2.162-.118 3.143l-.049.155c-.396 1.136-1.31 2.089-2.342 2.658-1.225.577-2.787.742-4.073.281a10 10 0 0 1-.355-.147l-.2-.084c-1.02-.468-1.796-1.402-2.191-2.445a4.2 4.2 0 0 1-.224-1.477l.001-.178c.015-.989.242-1.917.88-2.693l.104-.132a3.95 3.95 0 0 1 1.514-1.14l.11-.051c.544-.227 1.236-.21 1.78.008.707.346 1.152.792 1.425 1.534.061.213.065.42.062.64l-.001.139c-.016.536-.171.931-.54 1.324-.407.359-.877.599-1.425.581-.536-.053-.869-.261-1.237-.65-.067-.083-.067-.083-.134-.17-.111-.135-.162-.143-.329-.176-.034.716.032 1.24.491 1.813.187.201.413.288.665.383l.116.06c.255.082.5.07.765.066h.158a8 8 0 0 0 .984-.068v-.116l.195-.061c.86-.326 1.29-.986 1.654-1.788.41-.959.157-2.148-.209-3.087-.343-.84-.887-1.513-1.698-1.94a8 8 0 0 0-.29-.116v-.116l-.124-.01-.16-.015-.161-.014c-.132-.018-.132-.018-.19-.076-.256-.015-.513-.01-.77-.011l-.215-.002a5.9 5.9 0 0 0-2.598.59q-.283.124-.57.24c-.39.16-.39.16-.762.357-.17.097-.17.097-.343.097.05-.255.19-.422.35-.621l.088-.11c.855-1.056 2.064-1.864 3.433-2.043q.444-.028.889-.029h.218c.48.006.916.076 1.378.203l-.061-.18-.08-.236-.04-.118a3.4 3.4 0 0 1-.177-1.17v-.156c.004-.41.045-.8.127-1.203h.115l.011-.227c.242-2.4 2.073-4.646 3.664-6.331q.191-.207.378-.416c.29-.317.59-.623.892-.928l.14-.142.13-.132.119-.118c.098-.085.098-.085.214-.085l.036-.097c.088-.15.195-.234.33-.34.14-.122.253-.264.368-.41l.075-.077h.115l.116-.232h.116l.046-.103c.073-.134.147-.216.258-.32l.115-.11.122-.117c1.03-1.007 2.207-2.518 2.236-4.021l-.004-.125-.118-.006c-.734-.052-1.319-.24-1.832-.788-.525-.638-.593-1.333-.55-2.13.067-.611.43-1.129.882-1.525.658-.493 1.25-.704 2.063-.708" fill="#e72420"/><path d="m6.588 57.844.142.116c.451.384.79.837.852 1.445.043.797-.051 1.422-.532 2.08a2.44 2.44 0 0 1-1.593.768q-.243-.002-.487-.018l.057.694h.116l.044.165.06.218.06.215c.115.362.301.664.511.977l.078.115c.215.317.445.617.692.91l.16.192.168.202.08.094c.121.144.245.28.38.412.136.14.136.14.216.278.098.159.204.276.337.408l.148.147.159.158.164.164.432.43.438.434 1.364 1.354c.394.386.754.783 1.096 1.217l.246.292a21 21 0 0 1 1.49 2.093c.46.73.46.73.46 1.082h.116l.3.9.095.281c.279.825.303 1.639.306 2.503v.575c-.008.133-.008.133-.065.19l-.026.2c-.032.205-.032.205-.148.32-.037.12-.037.12-.057.232l.18-.038a8 8 0 0 1 1.55-.154h.163c.796.007 1.482.24 2.21.538v.116l.154.046c.7.255 1.436.978 1.856 1.59.078.114.078.114.232.257.124.127.165.187.184.36-.266-.033-.474-.148-.704-.277a7.6 7.6 0 0 0-1.03-.474l-.185-.073a6.5 6.5 0 0 0-1.028-.331v-.116c-.95-.156-2.116-.325-3.005.116l-.157.07c-.667.324-1.198.86-1.576 1.49l-.108.175c-.262.449-.391.874-.47 1.385l-.032.203c-.129 1 .06 1.986.668 2.802.11.104.227.195.346.29l.134.147c.174.158.333.228.548.316.127.056.127.056.311.183.354.227.79.169 1.196.166l.187-.001.456-.003v-.115l.462-.116v-.115l.155-.098c.222-.141.344-.317.48-.538l.07-.097c.245-.389.181-.849.162-1.29-.255.07-.39.134-.553.343-.147.18-.272.31-.487.408H16.7v.116a1.85 1.85 0 0 1-.773.123l-.218-.004-.165-.004v-.115l-.103-.028c-.55-.162-.82-.53-1.11-1.012-.235-.604-.183-1.315.073-1.903.306-.54.733-.934 1.316-1.145.703-.194 1.373-.096 2.02.216l.14.065c.785.4 1.387 1.054 1.767 1.842l.065.13c.422.937.431 2.37.109 3.337a6.5 6.5 0 0 1-.81 1.387l-.075.107c-.268.35-.65.591-1.022.818h-.116v.115l-.112.049-.144.063-.145.063c-.116.047-.116.047-.177.114q-.225.046-.451.087c-.295.05-.295.05-.586.117-1.032.235-2.436.028-3.354-.493-.661-.426-1.13-.966-1.56-1.618l-.104-.146c-.537-.821-.787-1.996-.785-2.97v-.14c.007-.36.053-.704.123-1.056l.027-.14c.071-.33.189-.62.334-.922l.069-.154.053-.12q.12-.265.224-.535c-.281.072-.281.072-.541.199-.439.26-.945.318-1.44.4-.21.03-.21.03-.388.095a12 12 0 0 1-.596.01h-.29l-.434.002c-1.424.005-2.574-.329-3.631-1.313l-.134-.144-.09-.092c-.452-.479-.765-1.092-1.008-1.7l-.046-.105c-.167-.424-.159-.858-.156-1.307v-.124c.005-1.266.381-2.4 1.287-3.312.445-.414.881-.738 1.458-.93l.125-.056c1.202-.434 2.76-.352 3.909.179.362.186.674.435.993.686l.184.134c.425.406.757.826.798 1.426h.116c.069.248.07.481.072.737l.004.135c.003.485-.15.906-.48 1.266-.458.405-.458.405-.636.405v.115c-.698.33-1.314.408-2.055.163-.538-.218-.828-.53-1.123-1.03-.08-.212-.066-.429-.065-.653v-.223c.02-.624.02-.624.256-.875l.104-.115c.109-.098.207-.156.34-.214v-.23c-.793-.063-.793-.063-1.503.244-.412.367-.72.848-.762 1.414-.01.732.142 1.304.532 1.924l.079.126c.365.53.884.868 1.481 1.087l.146.056c.856.271 1.913.211 2.743-.114l.157-.054c.36-.132.68-.312.999-.523l.134-.088c.68-.485 1.155-1.263 1.34-2.073.088-.64.081-1.317-.087-1.942l-.054-.278a1.6 1.6 0 0 0-.235-.531l-.116-.405c-.505-1.315-1.397-2.517-2.398-3.496a5 5 0 0 1-.332-.364 3.4 3.4 0 0 0-.469-.451c-.136-.115-.258-.243-.383-.37q-.288-.261-.578-.52l-.122-.109q-.296-.263-.611-.504a5 5 0 0 1-.539-.484 12 12 0 0 0-.848-.734 12 12 0 0 1-.865-.768 9 9 0 0 0-.496-.445 2.7 2.7 0 0 1-.358-.358 6 6 0 0 0-.401-.43c-.267-.262-.496-.556-.73-.848l-.113-.137a13 13 0 0 1-.681-.914l-.081-.117c-.454-.665-.454-.665-.454-.854h-.115l-.045-.117-.06-.154-.06-.153c-.06-.154-.06-.154-.152-.278-.587-1.096-.484-2.597-.146-3.748h.116v-.231h.115l.017-.127c.153-.6.79-.985 1.282-1.291 1.104-.615 2.547-.41 3.498.378" fill="#eeba06"/><path d="M28.026 46.055q.15.14.29.29c.385.367.785.7 1.21 1.02.29.222.554.455.812.713q.141.12.285.235a33 33 0 0 1 .847.709l.417.36q.58.502 1.176.988.389.322.768.653.335.286.673.57l.492.42.21.182.104.09q.27.233.557.448c.274.208.508.452.747.698.136.143.136.143.311.252.022.172.022.172.023.398l.001.126v.418l.002.3.001.814.001.68q.002.801.001 1.602 0 .828.003 1.654.003.71.002 1.42l.002.848q.002.399 0 .798l.001.293v.625c-.046.245-.133.33-.326.483-.167.037-.167.037-.353.039l-.212.003h-.976q-.255-.002-.508 0c-1.507.017-2.984-.14-4.365-.8l-.184-.087-.394-.195c.089-.243.268-.362.47-.51.27-.2.527-.406.773-.635.086-.068.086-.068.202-.068l.058-.174c.088-.087.088-.087.202-.18 1.201-1.021 2.34-2.46 2.802-3.98l.094-.246c.318-.865.275-1.903-.083-2.76-.323-.638-.8-1.29-1.455-1.617v-.116l-.217-.068a2.5 2.5 0 0 1-.443-.18c-.71-.371-1.685-.332-2.439-.102-.53.194-1.057.487-1.441.907-.14.137-.14.137-.289.148-.183-.09-.291-.21-.43-.358l-.162-.126-.127-.105v-.116l-.22-.068a6 6 0 0 1-.78-.331c-.635-.258-1.541-.195-2.171.034-.893.379-1.557.811-2.087 1.637l-.09.137a3.5 3.5 0 0 0-.235.56l-.075.211c-.256.775-.17 1.63.111 2.385l.044.12q.111.306.23.609c.053.143.099.278.13.427h.116c.231.383.231.383.231.578h.116c.062.085.062.085.13.202a8 8 0 0 0 .505.722l.096.131c.197.264.4.482.653.693.268.229.515.478.732.755.257.308.596.535.913.777q.167.132.326.274c.162.147.162.147.34.242l.119.076v.173l-.15.057c-.412.155-.412.155-.815.33a3 3 0 0 1-.59.156 9 9 0 0 0-.41.09l-.13.03-.247.06c-.958.223-1.94.225-2.917.226q-.333.001-.666.007h-.426l-.2.004h-.349c-.217-.051-.299-.153-.44-.324-.037-.19-.037-.19-.04-.41l-.003-.124-.004-.407-.004-.293q-.006-.397-.008-.796 0-.248-.004-.497-.006-.78-.008-1.56-.003-.9-.017-1.797a102 102 0 0 1-.01-1.39q0-.416-.008-.83c-.036-1.903-.036-1.903.422-2.416a3.6 3.6 0 0 1 .487-.377c.211-.143.395-.317.585-.487q.533-.455 1.087-.885c.549-.427 1.07-.887 1.585-1.354.244-.222.497-.429.753-.636q.228-.19.446-.39c.244-.222.496-.431.752-.639q.292-.24.577-.488.357-.308.723-.607.37-.301.733-.614l.104-.09q.338-.288.662-.59c.09-.064.09-.064.263-.064" fill="#ea8838"/><path d="M15.833 21.38c.545.818.293 2.579.114 3.498l-.056.259-.027.13c-.233 1.089-.676 2.128-1.244 3.083q-.15.254-.285.518c-.224.411-.49.795-.755 1.18l-.07.103c-.701 1.018-1.511 1.96-2.342 2.873l-.247.277c-.326.367-.668.715-1.018 1.06-.314.31-.622.62-.91.955-.157.179-.328.344-.498.511-.246.243-.486.486-.709.75-.127.148-.262.289-.397.431a13 13 0 0 0-1.668 2.286l-.09.148c-.246.441-.344.942-.46 1.43-.028.098-.028.098-.086.156a8 8 0 0 0 0 .347l.184.03c.447.075.861.15 1.26.374l.178.098c.512.403.9.944 1.02 1.593.102.99-.033 1.937-.659 2.748-.509.541-1.285.882-2.02.914q-.228 0-.458-.004l-.23.002a3.45 3.45 0 0 1-2.358-.915c-.792-.852-1.1-1.764-1.095-2.908v-.117c.003-.586.032-1.134.191-1.7l.055-.209c.265-.886.742-1.698 1.274-2.449l.096-.142a15 15 0 0 1 1.344-1.692q.228-.25.443-.512c.082-.08.082-.08.197-.08l.043-.1c.087-.158.193-.266.32-.393l.151-.15.158-.156.154-.154c.217-.215.434-.428.667-.627.35-.3.668-.636.992-.964.394-.398.786-.792 1.214-1.155q.174-.158.346-.318.288-.267.585-.524c.241-.207.46-.435.68-.664.122-.112.122-.112.238-.112l.045-.103c.077-.14.16-.225.276-.334.285-.278.529-.582.777-.892l.162-.2c1.474-1.804 2.736-3.838 2.738-6.233l.002-.184c.001-.525-.083-1.018-.186-1.531l.06.085c.166.13.332.116.534.118l.124.003.39.007.265.006.65.012z" fill="#0c7e4e"/><path d="M27.986 41.7c.438.044.756.313 1.071.602.141.128.288.246.436.366.26.21.509.431.756.657.203.18.414.35.626.52q.222.186.434.383c.256.233.523.446.797.658q.364.284.713.584c.426.384.426.384.928.643l-.002-.23-.007-1.213-.004-.692v-.29c.013-.117.013-.117.128-.29.27-.092.568-.066.849-.064h.162l.51.002 1.195.003c.118.294.132.543.13.853v.15q0 .246-.003.49v.34q0 .448-.003.895l-.002.914-.006 1.79.173.058c.077.08.077.08.156.18.197.238.417.43.653.63l.175.148c.462.394.926.787 1.407 1.158 1.316 1.017 1.316 1.017 1.77 1.698.02.277.007.5-.116.751-.124.13-.254.247-.404.347h-.116v.115c-.43.035-.686-.04-1.04-.288a5 5 0 0 1-.231-.232l-.22-.162a3.4 3.4 0 0 1-.44-.383 5 5 0 0 0-.608-.517c-.148-.116-.275-.25-.408-.382a24 24 0 0 0-.439-.349 5 5 0 0 1-.37-.345q-.344-.315-.715-.6a11 11 0 0 1-.695-.595q-.229-.202-.468-.394a21 21 0 0 1-.896-.78 31 31 0 0 0-1.628-1.365 13 13 0 0 1-.832-.706c-.145-.13-.295-.252-.447-.374a15 15 0 0 1-.81-.715 14 14 0 0 0-.652-.573c-.08-.08-.08-.08-.138-.254l-.23-.058c-.104-.08-.104-.08-.21-.18-.461-.443-.461-.443-1.04-.647-.262.102-.445.241-.658.423l-.086.073q-.31.261-.616.528l-.508.435q-.372.319-.74.64-.496.431-1.005.845c-.312.258-.616.526-.922.792-.407.354-.814.706-1.233 1.046a37 37 0 0 0-.967.822l-.63.543-.1.086-.2.171-.404.346-.202.173-.512.44c-.302.26-.605.52-.915.77q-.378.31-.744.632a26 26 0 0 1-.984.82c-.28.221-.532.352-.897.345-.309-.076-.532-.355-.701-.608-.06-.392 0-.72.231-1.04.144-.166.3-.315.462-.463l.107-.097c.27-.239.547-.469.823-.701q.29-.244.57-.502c.256-.234.527-.447.802-.66.256-.2.498-.41.738-.63.142-.13.29-.25.438-.371q.388-.316.762-.643c.495-.431.993-.858 1.503-1.271.33-.269.65-.548.97-.827q.315-.273.63-.542l.1-.086.4-.343.302-.258.1-.085q.266-.228.531-.46c.352-.306.705-.609 1.072-.898q.277-.225.547-.46l.207-.178.302-.26c.502-.43.867-.728 1.538-.804" fill="#e9883a"/><path d="m52.243 55.94.147.006.16.008.166.008.875.041.339.016.157.008q.39.018.78.055c.436.038.871.04 1.308.043l.467.005.996.009c2.483.023 2.483.023 3.462.056l.192.007q.448.015.895.053c.53.038 1.06.038 1.592.038l.338.002 1.864.005a2924 2924 0 0 0 5.039.017l1.84.006h.326l.446.002h.131c.215.002.308.01.492.132.01.151.01.151 0 .289l-.169.002a1389 1389 0 0 0-3.477.039c-.489.005-.973.014-1.46.06-.244.023-.489.03-.734.037l-.324.012-.497.017c-.76.024-1.479.109-2.222.268-.205.042-.412.074-.62.107-.391.067-.774.16-1.159.263l-.159.042a5.4 5.4 0 0 0-.846.311c-.182.083-.37.147-.558.214-1.567.576-3.474 1.705-4.34 3.182q-.037.063-.078.126h-.115l-.041.118a4 4 0 0 1-.342.598c-.25.39-.473.79-.686 1.202-.087.163-.087.163-.145.22-.155.033-.155.033-.346 0-.39-.286-.481-.851-.611-1.29-.522-1.745-1.726-3.453-3.063-4.68l-.105-.098a7 7 0 0 0-.205-.184c-.137-.128-.224-.217-.258-.406a1.9 1.9 0 0 1 .103-.68l.044-.13c.09-.185.216-.165.4-.156" fill="#fbfcfc"/><path d="M25.083 54.187c.55-.027.952.092 1.374.454q.645.593 1.174 1.291c.107.121.19.176.337.236a6.8 6.8 0 0 0 .984-1.014c.425-.53.818-.871 1.501-.95.478-.03.894-.04 1.33.172v.116l.288.116v.115l.106.043c.242.14.327.394.414.65.09.553.076 1.036-.115 1.56l-.05.144c-.182.525-.36.966-.76 1.36q-.178.213-.35.433a19 19 0 0 1-1.184 1.336c-.376.39-.376.39-.546.542h-.115l-.058.173c-.112.102-.112.102-.256.213L29 61.3l-.165.127-.321.257-.145.115c-.105.082-.105.082-.17.148-.19.038-.307.026-.47-.08q-.135-.105-.266-.215a5 5 0 0 0-.365-.272l-.17-.126v-.115l-.117-.034c-.243-.116-.413-.29-.605-.476l-.114-.108a31 31 0 0 1-.608-.596l-.117-.113-.104-.1-.106-.102c-.078-.09-.078-.09-.078-.205l-.102-.042c-.156-.09-.232-.19-.339-.334a3 3 0 0 0-.31-.375v-.174h-.116v-.115h-.115l-.066-.123c-.163-.302-.33-.599-.519-.885-.05-.09-.05-.09-.05-.206l-.174-.057c-.179-.348-.183-.723-.18-1.106l-.002-.123c0-.195.005-.376.066-.563h.116l.018-.128c.069-.281.233-.486.444-.68.19-.087.375-.13.578-.174l.058-.058c.232-.035.463-.053.697-.074" fill="#e0201d"/><path d="M45.246 43.57c-.182.204-.395.254-.65.33-.513.16-.966.383-1.43.653a.6.6 0 0 0 .058.289c.486.356 1.08.493 1.66.61q.203.04.405.085a42 42 0 0 0 1.546.304c.203.041.203.041.399.098.195.055.386.094.584.13a15 15 0 0 1 1.687.412c.693.206 1.316.48 1.81 1.024.084.162.078.277.057.457-.353.638-1.036 1.026-1.676 1.33h-.116v.115l-.346.058v.115l-.09.029c-.752.267-1.907.849-2.28 1.59-.03.324-.014.532.174.808.414.469 1.044.76 1.618.983l.151.08c.421.202.836.334 1.297.407.194.038.38.092.57.148.321.095.637.161.968.209.134.022.134.022.25.08a2.5 2.5 0 0 1-.174.578h-.115l-.007.166c-.028.201-.101.335-.21.506-.261.41-.452.87-.534 1.35a4 4 0 0 1-.586-.152l-.172-.057-.181-.061-.19-.064q-.572-.192-1.14-.395-.387-.138-.779-.266l-.21-.07-.41-.134a9 9 0 0 1-.962-.369 5 5 0 0 0-.427-.165c-.91-.315-1.877-.783-2.629-1.387l-.126-.098c-.315-.258-.578-.516-.655-.928-.03-.527.147-.957.487-1.358.562-.537 1.32-.849 2.01-1.184l.2-.097c.35-.169.7-.32 1.07-.446a4 4 0 0 0 .48-.223c.129-.063.258-.115.391-.166.713-.274.713-.274 1.286-.758l.116-.116c.035-.224.013-.325-.105-.52-.38-.405-.918-.564-1.439-.7a6 6 0 0 1-.465-.145 4 4 0 0 0-.505-.132 21 21 0 0 1-2.485-.633 17 17 0 0 0-.592-.178c-.463-.142-.965-.319-1.286-.697-.007-.14-.007-.14.058-.289.626-.658 1.912-.871 2.77-1.065l.125-.029c.255-.054.487-.07.745-.061" fill="#fbfcfc"/><path d="M45.39 4.11c.433.293.81.671 1.185 1.033l.101.097q.148.142.293.286l.091.089q.107.107.209.221v.116c.379-.073.569-.322.816-.596l.123-.133c.159-.173.313-.345.458-.53.287-.35.647-.608 1.102-.662.375-.006.565.09.836.335.24.247.305.433.305.777-.054.173-.054.173-.115.289h-.116l-.039.121c-.095.208-.228.369-.376.54l-.087.1a4.3 4.3 0 0 1-.568.557c-.135.109-.253.233-.374.358l-.29.289c.178.386.497.672.799.964.224.222.427.452.621.7l.075.095c.138.18.215.325.24.552h.115a.7.7 0 0 1 .058.52c-.116.208-.247.4-.405.578h-.116v.116c-.26.101-.472.126-.75.115v-.116c-.063-.02-.063-.02-.126-.043-.487-.215-.87-.65-1.211-1.045-.104-.124-.104-.124-.21-.221-.072-.077-.072-.077-.072-.193h-.115c-.087-.088-.087-.088-.18-.202l-.095-.114-.072-.088c-.394.168-.678.546-.95.866-.306.357-.655.702-1.072.925h-.116v.116c-.63.09-.63.09-.867-.058-.152-.141-.152-.141-.289-.29l-.094-.078c-.135-.16-.102-.324-.095-.525.066-.614.582-1.144 1.012-1.548.106-.101.106-.101.194-.23l.081-.103h.116l.04-.101c.094-.163.214-.25.364-.361-.02-.235-.091-.332-.258-.492-1.482-1.432-1.482-1.432-1.55-2.029-.002-.4.037-.6.306-.903.28-.245.74-.243 1.068-.093" fill="#f0ba08"/><path d="M4.218 48.598c.174.104.258.168.347.347q.007.15.006.302v.18c-.002.094-.002.094-.002.19l-.004.657c.218-.122.392-.26.574-.43.54-.49.54-.49.806-.502.255.092.455.215.643.412.082.207.087.321.011.531-.148.299-.34.503-.597.71-.172.14-.268.22-.339.434l.18-.029c.944-.107.944-.107 1.242.052.202.17.377.347.427.613-.017.267-.203.499-.393.674-.155.095-.247.097-.428.094l-.171-.002q-.088 0-.178-.004l-.18-.002-.441-.009v.174l.1.04c.377.215.714.66.882 1.058 0 .282-.094.435-.289.635-.166.125-.35.154-.558.15-.447-.11-.805-.523-1.118-.843l-.173-.058.002.2.002.266.001.132c.003.706.003.706-.175.93-.119.09-.119.09-.234.09v.116c-.382.03-.612-.004-.925-.232a1.3 1.3 0 0 1-.063-.48v-.18l.002-.188.003-.654h-.173l-.04.1c-.095.164-.209.268-.35.395l-.147.134c-.193.151-.38.281-.628.31-.294-.039-.434-.122-.626-.361-.09-.18-.075-.32-.058-.52.158-.35.407-.646.64-.95.11-.138.11-.138.169-.264l-.216.006-.283.005-.141.005c-.366.004-.608-.06-.884-.316a.77.77 0 0 1-.094-.624.87.87 0 0 1 .47-.456c.412-.097.842-.075 1.263-.064-.163-.211-.163-.211-.36-.387l-.102-.076v-.115h-.116c-.214-.205-.37-.425-.39-.726.02-.25.11-.41.284-.589.196-.133.337-.105.569-.072.26.078.41.214.603.4.211.205.399.347.668.467l-.058-.174a4 4 0 0 1-.005-.257v-.148l.002-.154.003-.539h.116l.014-.104c.135-.394.568-.347.91-.3" fill="#eb2923"/><path d="M91.186 48.598c.222.074.408.142.533.347.067.256.057.505.052.769l-.001.163-.006.397c.18-.034.18-.034.311-.153l.075-.118c.216-.301.478-.547.85-.625.231-.012.353.01.552.134.152.162.23.26.26.484-.048.416-.303.693-.603.971-.22.201-.22.201-.347.462a26 26 0 0 1 .556-.01l.158-.005c.384-.004.635.047.926.315a.8.8 0 0 1 .094.625 1 1 0 0 1-.52.462c-.133.013-.133.013-.276.012l-.156-.002-.16-.002-.165-.002-.4-.006c.106.187.207.333.365.477.281.275.523.555.604.946-.06.265-.193.419-.39.6a.72.72 0 0 1-.52.058 2.6 2.6 0 0 1-.957-.775c-.084-.108-.084-.108-.257-.15l.004.124.01.555.006.195.003.187.003.172c-.033.196-.105.261-.257.385-.243.121-.545.088-.81.058-.277-.183-.331-.378-.404-.694a5 5 0 0 1-.007-.516l.007-.466-.085.074-.626.55-.111.1c-.241.202-.241.202-.467.193a1.13 1.13 0 0 1-.672-.415c-.085-.214-.057-.336-.003-.56a2.5 2.5 0 0 1 .307-.39l.085-.099c.145-.165.287-.318.475-.435h.115v-.174l-.104.004q-.237.007-.474.01l-.163.007c-.362.005-.634-.042-.935-.252-.172-.193-.207-.376-.198-.636.045-.208.163-.315.314-.462.148-.074.252-.064.417-.063h.181l.19.002h.19l.467.003-.102-.12c-.782-.94-.782-.94-.802-1.28.04-.242.094-.338.268-.507.166-.11.255-.15.453-.144.448.105.809.45 1.082.803.084.109.084.109.256.15l-.003-.11-.011-.503-.006-.175c-.005-.355.01-.562.251-.83.22-.145.318-.14.578-.115" fill="#10814d"/><path d="M11.153 26.986c-.036.26-.14.472-.264.7l-.062.116a7 7 0 0 1-.657.975l-.122.156c-.28.35-.578.682-.884 1.01a8 8 0 0 0-.299.345c-.115.137-.226.25-.363.364a5 5 0 0 0-.42.393c-.254.26-.544.476-.832.697q-.24.187-.471.383c-1.324 1.06-2.958 1.962-4.699 1.795-.661-.158-1.146-.588-1.502-1.155-.154-.463-.15-1.158.058-1.6.38-.613.94-.962 1.618-1.174.21-.049.422-.085.635-.12l.183-.03c.421-.066.84-.108 1.266-.14a12.5 12.5 0 0 0 3-.577l.183-.053c1.04-.317 2.168-.92 2.936-1.693a1.1 1.1 0 0 1 .407-.219v-.115c.115-.058.115-.058.289-.058" fill="#0e7f50"/><path d="M83.905 27.102c.237.031.36.157.535.314.894.771 1.999 1.313 3.106 1.708l.132.05c1.085.397 2.213.485 3.354.599q.48.047.96.104l.213.026c.687.107 1.366.41 1.8.969.365.529.494 1.02.417 1.661-.178.535-.546.907-1.022 1.19-.648.316-1.415.266-2.098.082l-.127-.034c-1.08-.3-1.996-.84-2.878-1.526l-.191-.146a16 16 0 0 1-1.37-1.184l-.15-.145c-.683-.658-1.35-1.312-1.872-2.108l-.067-.102q-.206-.32-.395-.65l-.105-.181c-.242-.429-.242-.429-.242-.627" fill="#118151"/><path d="M69.406 5.764c.645.422.863 1.087 1.035 1.806.056.276.07.55.08.83.121 2.732.723 5.142 2.385 7.373.086.13.14.26.193.407-.55-.066-.965-.441-1.39-.773l-.095-.074c-.544-.433-1.043-.917-1.535-1.408l-.29-.286c-.44-.435-.825-.895-1.197-1.388l-.179-.23c-1.094-1.443-2.023-3.167-1.844-5.029.114-.5.431-.994.867-1.271.655-.332 1.322-.307 1.97.043" fill="#0b7f4f"/><path d="M26.556 5.533h.22c.512.037.79.29 1.134.65.1.134.16.25.232.405l.09.184c.098.23.112.45.108.697l-.001.136c-.073 2.48-1.93 4.713-3.601 6.384l-.254.256c-.36.363-.737.694-1.139 1.01l-.249.203a11 11 0 0 1-.697.487l-.106.07c-.256.165-.256.165-.45.165.03-.273.157-.457.31-.675l.242-.357a13 13 0 0 0 1.347-2.617c.36-.928.461-1.92.571-2.902l.02-.166a28 28 0 0 0 .15-1.811c.055-.608.285-1.247.745-1.661.429-.327.785-.46 1.328-.458" fill="#0a7d4e"/><path d="m39.988 83.5 1.336-.004a36 36 0 0 1 2.304.062l.163.564.049.169c.081.285.159.57.225.86.38 1.55 1.397 2.98 2.402 4.185l.083.103.074.088c.083.123.132.25.183.388-.575.015-1.144-.03-1.716-.076l-.15-.012a50 50 0 0 1-1.822-.169q-.078-.007-.16-.017c-.387-.049-.833-.128-1.116-.416-.635-.825-1.08-1.907-1.393-2.893l-.064-.193a4 4 0 0 1-.213-.963c-.019-.18-.075-.347-.127-.52a3.6 3.6 0 0 1-.062-.773l.002-.218z" fill="#08465f"/><path d="m2.814 68.794.152.002c.777.024 1.438.318 2.12.663l.12.06c.91.457 1.72.994 2.48 1.673l.168.15c.705.634 1.388 1.295 1.97 2.046l.249.307c.444.56.444.56.444.849-.26-.032-.442-.143-.657-.282-.582-.363-1.205-.645-1.828-.932l-.14-.066a4.6 4.6 0 0 0-.915-.313l-.332-.083-.177-.047c-.899-.235-1.777-.338-2.701-.391-.558-.033-1.057-.072-1.571-.313l-.146-.068c-.487-.236-.822-.641-1.01-1.146a2.6 2.6 0 0 1-.032-.52l.001-.139c.013-.347.067-.592.32-.843l.091-.096c.4-.38.85-.523 1.394-.51" fill="#0c8250"/><path d="M93.364 69.121c.415.331.665.673.733 1.203.03.536-.112.967-.46 1.38-.594.554-1.305.706-2.086.76l-.387.029-.195.014c-1.776.134-3.313.473-4.904 1.31l-.185.097a13 13 0 0 0-.99.567c-.118.063-.118.063-.291.063.165-.47.496-.835.808-1.214l.076-.091c.638-.774 1.329-1.486 2.12-2.105l.202-.165c1.281-1.051 3.854-2.951 5.56-1.848" fill="#0d7d50"/><path d="m47.24 74.677.447.01q.542.01 1.084.03c-.078.164-.147.287-.289.405h-.115v.115q-.136.124-.282.239l-.177.141-.177.14c-.986.783-1.93 1.563-2.658 2.6l-.084.11c-.232.302-.386.646-.552.989l-.187.372c-.102.2-.193.4-.275.61l-1.728-.062-.63-.023-.198-.006-.186-.007-.163-.006a5 5 0 0 1-.504-.07 1.9 1.9 0 0 1 .249-.74l.06-.112a11.3 11.3 0 0 1 3.031-3.458q.237-.18.466-.37l.133-.102c.118-.094.226-.187.337-.29.722-.622 1.488-.549 2.398-.515" fill="#0c4561"/><path d="M59.976 49.507h1.22c.347.002.67.035 1.01.103.2.039.398.056.602.071l.248.02.127.01c.79.062 1.57.132 2.339.332.25.063.502.1.758.137.402.06.792.14 1.185.243.265.07.53.123.8.169.338.063.676.144 1.003.255.21.069.421.129.634.188l.26.073.404.113c2.113.585 2.113.585 2.533 1.075v.116c-1.843-.272-1.843-.272-2.543-.464-.592-.154-1.209-.224-1.812-.318l-.191-.03-.174-.028c-.134-.027-.134-.027-.192-.085a7 7 0 0 0-.315-.041l-.195-.023-.603-.068-.18-.02c-.151-.021-.151-.021-.325-.079a6 6 0 0 0-.256-.027L66 51.202c-.338-.03-.673-.062-1.008-.12-1.241-.2-2.493-.189-3.746-.184h-.751q-.71 0-1.417.003l-1.615.003q-1.659.001-3.317.005c.031-.22.044-.275.213-.433.322-.21.696-.315 1.059-.433l.115-.043c.376-.137.754-.195 1.149-.25l.19-.028q.313-.044.626-.084l.117-.016c.787-.105 1.569-.117 2.362-.115" fill="#f3f6f6"/><path d="M58.873 51.885h.177l.193.002h.202q1.095.007 2.191.026.342.007.685.01l.831.015.166.002c.13.01.13.01.247.067.02.483-.059.945-.138 1.42l-.096.59q-.078.498-.133.999c-.032.279-.032.279-.096.343q-.263.009-.527.008h-.712l-.187-.001a136 136 0 0 1-3.313-.041l-.13-.002a1.4 1.4 0 0 1-.62-.138l.021-.242.012-.136c.027-.156.081-.284.14-.43q.024-.141.04-.282A8 8 0 0 1 58.1 53l.053-.174c.093-.3.188-.595.326-.877.143-.072.235-.065.394-.065" fill="#fafbfc"/><path d="M50.967 63.738c.16.014.16.014.347.058l.182.04.383.086c.206.043.413.071.622.1.434.06.861.145 1.29.232 1.04.206 2.074.361 3.135.387.26.007.516.02.774.048.858.091 1.71.107 2.573.104h.587c.924.003 1.84-.028 2.76-.104q.477-.038.956-.045l.125-.003a.86.86 0 0 1 .449.095c.09.1.09.1.12.32-.015.25-.093.4-.26.589-.284.172-.553.222-.875.267l-.136.021c-.68.102-1.357.125-2.044.124h-1.497c-2.265.003-2.265.003-2.847-.095a5 5 0 0 0-.553-.051l-.225-.012-.118-.006c-1.134-.06-2.264-.18-3.371-.439q-.255-.056-.512-.1a14 14 0 0 1-1.15-.251l-.13-.032c-.352-.096-.555-.258-.809-.52-.093-.172-.096-.273-.065-.466.082-.156.153-.225.29-.347" fill="#f2f5f6"/><path d="M54 51.885h.409l.237.001.875.002h.647l1.271.004a3.3 3.3 0 0 1-.199.863c-.1.27-.184.531-.24.814a6 6 0 0 1-.139.519h-.115l-.02.108-.027.148-.027.144a5 5 0 0 1-.131.449l-.048.141-.036.107-1.651.005c-.762.003-1.52.002-2.279-.062l.058-.462h.116l.025-.13q.04-.197.09-.39h.116l.065-.203c.199-.598.407-1.213.69-1.777l.06-.12c.082-.153.082-.153.252-.161" fill="#fafbfc"/><path d="M55.808 69.279h.523l.574.003h.389l.954.003c-.017.11-.017.11-.058.231a4 4 0 0 1-.404.174q-.188.09-.374.182l-.105.052-.45.225q-.964.483-1.907 1.007l-.902.498-.307.17-.19.105-.178.099c-.162.09-.162.09-.33.228-.269.146-.532.118-.834.11l-.195-.003q-.321-.005-.642-.015l-.119-.003q-.807-.023-1.615-.055c.08-.241.25-.308.459-.43l.118-.07c.734-.424.734-.424 1.041-.424v-.116l1.04-.534.353-.181.509-.261.158-.082c.273-.14.546-.27.83-.387l.174-.074c1.084-.453 1.084-.453 1.488-.452" fill="#124a69"/><path d="M40.103 39.468c.217.085.295.193.42.386.414.592.989 1.065 1.545 1.52l-.058.174h-.404v2.138c-.174.058-.174.058-.578.058l-.116-1.04-.508-.006c-.183.002-.183.002-.355.035a3.5 3.5 0 0 1-.603.032l-.383-.003v.924c-.115.058-.115.058-.52.058l-.058-2.138-.462-.116c.07-.277.195-.368.408-.538l.208-.171.102-.083c.47-.385.932-.8 1.362-1.23" fill="#e58736"/><path d="M57.053 57.472c.36.244.696.567.79 1.007.06.534.012.939-.288 1.387l-.068.102a1.53 1.53 0 0 1-.915.592c-.354.034-.668 0-.982-.174-.163-.144-.163-.144-.289-.289l-.087-.081c-.251-.267-.334-.6-.343-.959.027-.65.284-1.082.752-1.528.442-.283.97-.317 1.43-.057" fill="#0c475e"/><path d="M66.465 52.285c.253.002.444.037.682.127q.123.015.246.025l.216.033c.125.186.143.29.174.509.026.182.054.346.115.52.075.236.1.466.123.711l.015.137c.04.381.036.739.036 1.127h-2.08a28 28 0 0 1 .054-2.434l.015-.205c.044-.547.044-.547.404-.55" fill="#f5f8f9"/><path d="M61.496 60.435c.327.166.622.374.797.703.065.293.065.558-.066.832a1.53 1.53 0 0 1-.8.612c-.616.045-.616.045-.867-.115-.274-.279-.48-.512-.484-.914.008-.375.094-.551.365-.813.32-.293.608-.475 1.055-.305m7.154-7.85c1.004.08 1.004.08 1.213.29q.066.25.116.505l.03.15c.126.628.225 1.243.2 1.887a4 4 0 0 1-.736.068l-.198.003c-.163-.014-.163-.014-.279-.13a2.6 2.6 0 0 1-.162-.694l-.022-.193-.022-.2-.043-.394-.019-.176c-.007-.131-.007-.131-.078-.191q-.007-.233-.004-.466v-.133zm2.022.347.423.021.12.006c.212.012.317.026.497.146.04.15.07.29.093.442l.023.133.046.279a47 47 0 0 0 .115.697l.022.127c.037.233.055.456.048.691q-.24.012-.48.019l-.138.007c-.127.002-.24.001-.364-.026-.352-.387-.305-1.117-.333-1.61a4 4 0 0 0-.072-.47c-.007-.154-.002-.307 0-.462" fill="#f8f9fa"/><path d="M52.412 59.982a.98.98 0 0 1 .537.555c.1.34.108.67-.03 1-.24.425-.24.425-.507.525-.267.028-.422-.01-.636-.173v-.116h-.115c-.27-.363-.296-.711-.232-1.156.182-.46.47-.721.983-.635" fill="#f4f6f7"/><path d="m64.72 52.123.285-.004.161-.002c.132.006.132.006.19.064q.01.225.009.453v.14c-.005.53-.05 1.054-.096 1.58l-.025.296-.061.709-.401.003-.226.002c-.182-.005-.182-.005-.24-.063.005-.232.034-.463.058-.693l.021-.227c.076-.758.2-1.507.325-2.258" fill="#f6f9fa"/><path d="M66.804 63.85c.17.061.17.061.275.18.254.63.247 1.633-.008 2.258-.086.178-.166.337-.328.455-.156.01-.156.01-.29 0l-.111-.275-.063-.154c-.245-.65-.169-1.434.044-2.081.115-.234.211-.378.481-.383" fill="#f3f5f6"/><path d="m72.463 53.22.394-.014.222-.008c.194.023.194.023.3.113.087.184.125.368.157.567l.022.123.061.376.019.116c.056.352.097.682.097 1.04h-.925a4 4 0 0 1-.27-1.092l-.023-.162a7 7 0 0 1-.054-1.058" fill="#f6f8f8"/><path d="m63.556 38.286.128.004h.128c.314.006.314.006.446.138.014.14.014.14.013.312v.188l-.002.197v.197c-.003.484-.003.484-.069.55a4 4 0 0 1-.258.006h-.158l-.165-.002h-.167l-.408-.004-.01-.65-.005-.186-.002-.18-.002-.165c.045-.339.205-.407.53-.405" fill="#1c3e4f"/><path d="m54.55 56.052 2.958.022.226.002c2.062.016 4.123.045 6.185.096 2.237.055 4.475.074 6.713.09h.131q1.659.012 3.319.021v.058a8191 8191 0 0 1-8.288.006l-2.172.001a19 19 0 0 1-1.62-.05c-.3-.025-.6-.035-.902-.045l-.213-.008c-1.139-.035-2.278-.04-3.417-.05l-1.442-.013c-.495-.005-.985-.02-1.478-.072z" fill="#06415a"/><path d="m54.434 65.587.437-.004.124-.001c.261-.001.51.015.768.063l.058.058c.665.104 1.36.075 2.03.086 1.331.023 1.331.023 1.92.06.475.029.95.036 1.426.034h.4c.44.001.877-.01 1.316-.048q.321-.028.642-.048l.23-.015 1.05-.07a.8.8 0 0 1-.405.163l-.14.022-.144.021-.139.022c-.683.105-1.362.128-2.052.127h-1.497c-2.266.003-2.266.003-2.846-.095a5 5 0 0 0-.57-.053l-.232-.013-.122-.006a18 18 0 0 1-2.254-.245z" fill="#fff"/><path d="m47.229 16.804.685.001c1.995.003 1.995.003 2.59.126q.157.015.315.025l.18.013.192.013a10 10 0 0 1 1.433.196c.312.069.628.113.944.158v.058a6 6 0 0 1-1.095-.083l-.167-.024c-.407-.06-.407-.06-.472-.125a9 9 0 0 0-.37-.028l-.115-.008-.378-.021-.132-.008-.793-.044-.317-.017c-2.003-.107-4.114-.183-6.1.126a83 83 0 0 1-.856.118c-.335.045-.932.105-.994.105v-.107l1.066-.142.36-.048q.615-.082 1.232-.157l.158-.019c.878-.102 1.75-.112 2.634-.108" fill="#06415a"/><path d="M72.926 61.889c.34.05.34.05.404.115.058.642-.067 1.277-.173 1.907-.138-.018-.138-.018-.289-.058-.246-.416-.217-.918-.173-1.386.056-.206.13-.39.23-.578" fill="#eef1f3"/><path d="M62.64 58.826a.7.7 0 0 1 .289.231c.036.227.05.365-.056.57-.107.144-.2.23-.374.279-.28-.075-.454-.267-.61-.502a.6.6 0 0 1 .166-.42c.186-.152.35-.186.585-.158" fill="#eceff0"/><path d="M67.032 62.178c.275-.024.407-.032.65.108.324.31.441.82.453 1.252l-.002.218-.001.22-.002.166h-.174c-.136-.305-.18-.62-.238-.948-.074-.304-.187-.504-.455-.67a5 5 0 0 0-.29-.115z" fill="#e3e5e8"/><path d="M23.403 57.15c.201.181.319.369.445.607l.105.197c.068.14.116.257.144.41h.115v.115h.116q.09.143.173.29c.23.308.472.6.752.866l.326.315c.078.09.078.09.078.205l.092.036c.198.113.348.266.511.423.213.204.41.377.668.524l.29.288c.112.083.227.157.346.231-.086.03-.086.03-.174.058-.152-.094-.152-.094-.328-.23l-.094-.074q-.319-.248-.618-.52c-.132-.115-.271-.22-.411-.328a2.6 2.6 0 0 1-.55-.592 1.4 1.4 0 0 0-.263-.264 1.3 1.3 0 0 1-.336-.36v-.117l-.173-.057c-.074-.088-.074-.088-.145-.195a2 2 0 0 0-.23-.295 1.7 1.7 0 0 1-.243-.323l-.076-.121c-.057-.106-.057-.106-.057-.222h-.116l-.27-.525c-.077-.168-.077-.168-.077-.342" fill="#763a3d"/><path d="m37.619 65.645-.33.112-.184.063a2.5 2.5 0 0 1-.772.121h-1.636c-2.023.001-2.023.001-2.741-.18v-.058l.31-.004.175-.002c.158.004.306.016.462.034.361.037.72.04 1.083.041l.217.001.452.001.684.004c.989.007.989.007 1.96-.16.146-.031.146-.031.32.027" fill="#785b43"/><path d="M63.651 33.74c.145.007.145.007.202.065q.014.141.019.284l.007.173.007.182.025.632h-.52l.025-.632.007-.182.008-.173.006-.161c.017-.179.033-.18.214-.188" fill="#e69831"/><path d="M60.001 49.507h1.582c.132.016.132.016.306.131l-1.767.033c-.875.017-1.75.03-2.625.025v-.058c.836-.113 1.662-.133 2.504-.13" fill="#fff"/><path d="M59.288 48.648h1.382c2.34-.003 2.34-.003 3.068.181v.058l-.372.004-.21.002c-.17-.006-.17-.006-.227-.064a12 12 0 0 0-.642-.04 41 41 0 0 0-1.833-.025h-.59q-1.27 0-2.54.065v-.058c.64-.142 1.311-.124 1.964-.123m-13.51-34.845h2.743c.606 0 1.206.024 1.81.066v.057h-.145a1046 1046 0 0 0-3.018-.006c-.488-.001-.972.01-1.46.051a9 9 0 0 1-.743.017l-.14-.001-.33-.003v-.058l.173-.01.224-.015.224-.014c.236-.023.416-.084.662-.084" fill="#06415a"/><path d="m51.66 58.422.22-.008.125-.004c.118.012.118.012.291.127.025.199.025.199 0 .405-.09.112-.09.112-.231.173-.217.01-.217.01-.404 0z" fill="#f5f7f8"/><path d="m45.735 74.696.17.002h.192l.208.002.213.001.675.005.457.003q.561.002 1.121.008l-.057.174H45.42c.173-.174.173-.174.314-.195" fill="#06415a"/><path d="M49.927 63.622c.08.28.057.558.045.845-.005.291.051.454.186.716-.002.158-.002.158-.058.288-.107.069-.107.069-.249.116l-.157.055-.172.06q-.182.074-.364.152l-.329.138-.154.07c-.135.045-.135.045-.308-.013l.708-.318.203-.091q.096-.044.195-.087l.18-.081c.159-.058.159-.058.39-.058l-.051-.15c-.332-1.06-.332-1.06-.121-1.547z" fill="#765e49"/><path d="m31.898 8.379.115.058-2.542 2.542-.116-.057.09-.089.405-.403.14-.138c.25-.25.492-.502.721-.771.26-.299.552-.561.852-.82a5 5 0 0 0 .335-.322" fill="#f03943"/><path d="m23.866 54.434.115.058-.195.231-.11.13-.1.101h-.115l-.018.112a3 3 0 0 1-.13.426c-.154.461-.075.813.058 1.27a.6.6 0 0 1-.025.388c-.212-.386-.241-.727-.239-1.163v-.123c0-.195.004-.376.065-.563h.116l.016-.127c.048-.187.12-.287.24-.436l.108-.137c.098-.109.098-.109.214-.167" fill="#7a343c"/><path d="M26.35 54.434v.116a2 2 0 0 1-.494-.21c-.446-.178-1.003-.097-1.47-.021l-.174.115c-.126-.021-.126-.021-.23-.057a2.2 2.2 0 0 1 2.368.057" fill="#533947"/><path d="m54.434 65.587.437-.004.124-.001c.261-.001.51.015.768.063l.058.058q.142.019.284.03l.173.016.182.015.183.016.45.038v.058c-.882.03-1.798-.038-2.659-.231z" fill="#fff"/><path d="M30.76 54.066h.131c.345.006.59.078.891.253-.1.036-.1.036-.23.057l-.106-.053c-.452-.223-1.216-.044-1.686.053.253-.309.63-.31 1-.31" fill="#543948"/><path d="M50.967 16.99a9 9 0 0 1 1.641.186c.318.067.638.114.96.16v.058a6 6 0 0 1-1.095-.083l-.167-.024c-.407-.06-.407-.06-.472-.125a13 13 0 0 0-.437-.061l-.124-.016-.306-.038z" fill="#06415a"/><path d="m28.72 75.122.115.057-1.445 1.445c0-.173 0-.173.117-.306q.076-.075.154-.149l.153-.148.154-.148.29-.29z" fill="#3a3d3c"/><path d="M23.403 57.15c.201.181.319.369.445.607l.105.197c.068.14.116.257.144.41h.115l.058.347c-.404-.489-.404-.489-.404-.694h-.116l-.27-.525c-.077-.168-.077-.168-.077-.342" fill="#6e3739"/><path d="m76.855 83.385.116.058-.983.982c0-.318.307-.533.52-.751.113-.103.226-.196.347-.289" fill="#eb4a55"/><path d="m28.604 61.542.116.058-.239.23-.134.13c-.181.125-.279.13-.494.102-.166-.108-.166-.108-.29-.231v-.116c.225.109.225.109.29.174.185.03.302.03.46-.078q.15-.13.291-.269" fill="#73373d"/><path d="m24.902 54.13.137.004.33.011v.058l-.21.021-.271.03-.138.014-.133.014-.121.013c-.129.02-.129.02-.284.14-.126-.022-.126-.022-.23-.059.32-.216.538-.262.92-.245" fill="#7d3037"/><path d="m15.255 83.096.116.058-.809.809c0-.236.091-.295.25-.466l.14-.154c.13-.131.13-.131.303-.247" fill="#f3be48"/><path d="m53.799 49.87.115.057q-.166.172-.336.343l-.095.099c-.242.245-.242.245-.435.31.15-.342.445-.602.75-.81" fill="#474d4a"/><path d="M4.103 75.41c0 .174 0 .174-.152.343l-.295.286q-.123.12-.247.238c0-.236.092-.294.25-.466l.14-.153c.13-.132.13-.132.304-.247" fill="#f1c552"/><path d="m54.723 6.53.116.058-.34.346-.097.1a9 9 0 0 1-.257.247h-.115c.09-.224.231-.348.411-.506l.16-.14z" fill="#eabd4a"/><path d="M30.518 54.142h.132l.323.003v.058l-1.213.173c.254-.254.414-.238.758-.234" fill="#843137"/><path d="m22.825 52.99.116.057-.809.81c0-.266.167-.394.347-.578q.168-.151.346-.29" fill="#423f43"/><path d="m3.814 17.162.115.058-.866.81-.116-.059.303-.307.086-.087c.151-.152.302-.292.478-.415" fill="#dd4454"/><path d="m76.509 12.424.115.058-.693.693-.116-.058c.215-.255.422-.495.694-.693" fill="#f8c442"/><path d="m49.06 4.334.116.058-.751.75q-.058-.027-.116-.057c.477-.554.477-.554.751-.751" fill="#f5c54e"/><path d="M50.563 62.987c0 .173 0 .173-.098.291l-.126.124-.126.125c-.113.095-.113.095-.228.095.083-.199.19-.31.354-.448l.127-.107z" fill="#4a5450"/><path d="m2.658 57.728.116.058-.752.751c0-.241.13-.355.29-.52q.168-.15.346-.289" fill="#f0bf45"/><path d="M26.813 61.138c.19 0 .274.158.404.288.113.083.228.157.347.231l-.174.058c-.128-.076-.128-.076-.267-.187l-.14-.11c-.113-.107-.113-.107-.17-.28" fill="#7e333c"/><path d="M87.141 67.09h.116a1 1 0 0 1-.325.418l-.11.092-.085.067-.116-.058q.14-.147.289-.288h.116z" fill="#ea454c"/><path d="m19.82 48.02.174.058-.636.52c0-.173 0-.173.095-.28l.126-.11.123-.111z" fill="#303331"/><path d="m25.426 5.836.115.058-.578.578c0-.173 0-.173.134-.318l.155-.144.105-.105z" fill="#398068"/><path d="M6.299 76.855a1.2 1.2 0 0 1-.347.462h-.116c.088-.204.217-.462.463-.462" fill="#fdf0b3"/><path d="M44.553 4.103a1.2 1.2 0 0 1-.347.462h-.115c.087-.204.216-.462.462-.462" fill="#f0c649"/><path d="m23.866 54.434.115.058-.347.405-.057-.174z" fill="#882f35"/><path d="m20.803 82.114.173.115v.174c-.274-.044-.274-.044-.404-.174z" fill="#f0d26f"/><path d="m49.87 72.001.173.058-.116.231h-.289c.058-.173.058-.173.231-.289" fill="#06415a"/><path d="M44.842 43.57h.404c-.138.168-.249.203-.462.232z" fill="#d2cec7"/></g><defs><clipPath id="clip0_56_237"><rect width="95" height="95" rx="12" fill="#fff"/></clipPath></defs></svg>