<svg viewBox="0 0 170 72" fill="none" xmlns="http://www.w3.org/2000/svg"><g filter="url(#filter0_d_56_16)"><g clip-path="url(#clip0_56_16)"><path d="M10 6h149.813v51.888H10z" fill="#fdfdfd"/><path d="m53.071 9.2 4.077-.01 1.283-.005h.765l.508-.002q.386-.002.773-.002l.224-.001a6.4 6.4 0 0 1 2.319.424l.192.073c1.335.52 2.411 1.36 3.07 2.648.51 1.175.592 2.926.132 4.13l-.08.23c-.454 1.198-1.27 1.99-2.339 2.658.048.23.118.398.244.595l.224.35.123.194q.376.587.761 1.169l.088.133.428.647c1.019 1.541 1.019 1.541 1.019 1.905q-.858.02-1.715.029-.4.003-.797.013-.459.01-.917.012l-.287.008c-.646 0-.646 0-.894-.18a2.7 2.7 0 0 1-.306-.428l-.13-.186q-.053-.09-.109-.18c-.303-.489-.618-.97-.933-1.452l-.125-.19-.13-.195c-.133-.216-.133-.216-.26-.487-.144-.289-.272-.511-.498-.743-.423-.135-.803-.121-1.248-.102l-1.17.024v4.057H53.07z" fill="#054058"/><path d="m12.731 28.628 3.667-.015 1.15-.006.692-.001q.228 0 .455-.003c.957-.007 1.841.04 2.775.259l.236.05c1.397.307 2.94 1.29 3.755 2.452 1.154 1.818 1.417 3.854 1.017 5.957-.355 1.548-1.46 2.808-2.76 3.645-.544.327-1.107.553-1.702.77l-.183.076c-1.099.426-2.406.336-3.562.33h-.429l-1.566-.006-3.545-.01z" fill="#053f59"/><path d="M127.431 9.121h4.214v15.215h-3.668a43 43 0 0 1-1.921-2.297c-.407-.52-.824-1.03-1.241-1.541l-.302-.372c-.361-.445-.731-.88-1.104-1.314a48 48 0 0 1-.88-1.055q-.183-.225-.369-.447l-.196-.235-.178-.212c-.129-.173-.129-.173-.129-.33h-.156v7.803l-2.102.005-.664.002-.518.001-.275.001h-.485c-.169-.009-.169-.009-.247-.087a13 13 0 0 1-.01-.58v-.187l.001-.624v-.445l.001-1.212v-1.266l.002-2.398.002-2.73q0-2.809.004-5.617.754-.044 1.511-.064.257-.009.512-.024c1.496-.087 1.496-.087 1.977.34.225.24.412.498.589.776.13.201.283.38.438.562l.356.439c.56.685 1.124 1.366 1.702 2.037.505.587.99 1.19 1.473 1.795q.417.519.839 1.035l.126.155.12.147q.145.18.287.364c.122.17.122.17.291.24zm-19.585 19.897.259.12c1.405.66 2.395 1.595 3.175 2.923l.099.165c.405.732.662 1.653.681 2.488l.012.276c.048 1.972-.549 3.784-1.885 5.264-1.108 1.085-2.623 1.769-4.135 2.029l-.219.04c-.436.066-.873.052-1.313.052l-.285.003c-1.754.003-3.408-.574-4.738-1.734l-.153-.12c-1.197-.965-2.085-2.647-2.265-4.171a17 17 0 0 1-.03-.98l-.003-.246a5.45 5.45 0 0 1 .52-2.286l.072-.16c.84-1.821 2.19-3.098 4.076-3.812q.29-.103.583-.197l.179-.059c1.671-.508 3.798-.356 5.37.405" fill="#064159"/><path d="M150.03 28.37h.269c.722.01 1.4.083 2.101.258l.236.058a6.95 6.95 0 0 1 3.119 1.893l.174.171c1.253 1.305 1.833 3.188 1.813 4.965-.051 1.554-.622 2.943-1.597 4.149l-.18.244c-.86.92-1.891 1.475-3.082 1.853l-.278.092c-1.941.631-4.206.464-6.028-.456-1.762-.96-3.015-2.37-3.611-4.303-.358-1.428-.379-3.17.227-4.53l.067-.152c.776-1.686 2.092-2.995 3.834-3.667l.468-.161q.162-.065.322-.132c.693-.253 1.415-.286 2.146-.283" fill="#07415a"/><path d="M40.82 9.2h4.526c.27.538.518 1.069.747 1.623 1.141 2.73 2.37 5.427 3.623 8.107a114 114 0 0 1 1.526 3.426l.488 1.137.078.18c.1.234.17.407.17.663h-4.603l-.234-.624-.185-.439q-.226-.538-.425-1.087l-.099-.274c-.071-.229-.071-.229-.071-.463h-6.555l-.234.703q-.073.195-.15.388l-.08.198-.082.199-.16.398-.072.174q-.16.413-.314.827h-4.37a3.5 3.5 0 0 1 .322-1.111l.17-.373.1-.217c.206-.462.402-.927.6-1.393.379-.888.76-1.774 1.154-2.655.817-1.83 1.615-3.669 2.404-5.51l.105-.246.304-.71.099-.23q.233-.543.46-1.09l.084-.202.154-.373.07-.168.058-.144c.117-.245.258-.479.393-.715" fill="#064058"/><path d="M139.291 9.121c.18-.031.18-.031.407-.034l.257-.004.279-.001.286-.003.6-.001q.459-.001.918-.01h.581l.278-.006c.631.005.631.005.882.253l.116.274.075.157q.127.27.243.545l.09.204.28.645.184.424.45 1.034q.58 1.34 1.185 2.668l.153.337q.423.93.857 1.857.612 1.304 1.173 2.632.365.86.753 1.713l.097.215a379 379 0 0 0 .746 1.636c.19.42.19.42.19.68q-.848.012-1.697.017-.393.001-.788.007-.453.006-.906.007l-.286.005h-.265l-.233.002c-.194-.038-.194-.038-.332-.182a5 5 0 0 1-.304-.64l-.114-.272-.117-.285-.233-.559-.103-.25c-.067-.183-.067-.183-.162-.268v-.469h-6.632l-.234.703q-.103.274-.211.546l-.104.264-.129.326-.414 1.048h-4.37a3.5 3.5 0 0 1 .275-.949l.123-.281.134-.3.349-.796q.36-.822.709-1.648c.268-.628.543-1.25.837-1.867.214-.458.408-.925.606-1.39.265-.621.53-1.24.81-1.854.336-.739.658-1.483.98-2.228l.081-.189q.424-.977.841-1.958l.066-.155.304-.715.107-.252.092-.218c.084-.18.084-.18.24-.415" fill="#064159"/><path d="M73.67 9.121q.925-.018 1.85-.026.315-.003.63-.01.45-.007.904-.01l.284-.007c.243 0 .464.004.702.053.208.216.208.216.312.468l.084.173.065.167.08.2.088.221c.367.9.763 1.787 1.166 2.673l.096.211.391.861a337 337 0 0 1 3.485 7.864c.241.567.493 1.127.769 1.678.128.26.174.4.174.7h-4.447c-.546-1.171-.546-1.171-1.093-2.81h-6.554l-.936 2.42-.156.39-1.851.005c-1.667.007-1.667.007-2.44-.084.034-.34.102-.617.24-.93q.12-.275.231-.555c.28-.69.56-1.377.877-2.05.668-1.427 1.27-2.886 1.867-4.343q.331-.794.695-1.573c.422-.912.815-1.836 1.203-2.763q.278-.658.559-1.315l.181-.425.113-.262.098-.231q.158-.35.333-.69" fill="#053f57"/><path d="M105.037 9.2q.86-.02 1.72-.03.399-.003.798-.012a60 60 0 0 1 .919-.012l.289-.009c.639 0 .639 0 .862.167.107.143.179.278.25.441l.136.277.122.294.069.163.144.345q.194.464.391.926l.08.189q.348.82.716 1.63.589 1.305 1.167 2.62a439 439 0 0 0 1.574 3.539q.3.668.631 1.322c.268.531.511 1.07.746 1.617l.203.466a38 38 0 0 1 .248.572c.093.241.093.241.171.631h-4.525c-.722-1.534-.722-1.534-.893-2.009l-.057-.152a5 5 0 0 1-.221-.804l-6.476.078q-.324.807-.634 1.62l-.082.214-.08.209-.07.185q-.118.328-.226.66h-4.526c.176-.527.176-.527.28-.76l.072-.16.077-.169.08-.18.443-.984.363-.807a211 211 0 0 0 1.672-3.809q.437-1.019.887-2.03.685-1.542 1.327-3.098.287-.694.578-1.387l.2-.48.124-.297.11-.263c.106-.243.221-.478.341-.714" fill="#053f58"/><path d="m114.507 28.614.208-.001.922-.005 1.247-.003q.638-.001 1.277-.007l.99-.003.47-.002c1.843-.017 3.778.316 5.19 1.618.99 1.069 1.273 2.346 1.245 3.756-.056 1.181-.648 2.291-1.512 3.088-.303.223-.615.428-.936.624.07.333.239.577.429.853l.107.159q.324.475.654.949.48.693.951 1.394l.145.215.137.205.123.182c.11.184.185.369.263.569q-.874.053-1.749.077-.297.01-.594.029c-1.593.096-1.593.096-2.047-.234-.302-.325-.495-.699-.677-1.1a5 5 0 0 0-.402-.67l-.266-.419-.137-.215-.134-.21-.127-.196c-.109-.183-.109-.183-.172-.352-.059-.176-.059-.176-.249-.378-.358-.08-.708-.076-1.073-.073l-1.034-.005v3.746h-3.98l-.004-5.276-.001-2.45-.002-2.134-.001-1.13V30.15l-.001-.391v-.834c.019-.446.381-.31.74-.312" fill="#053f56"/><path d="M58.69 28.628c9.18 0 9.18 0 11.064 1.746.963 1.015 1.154 2.243 1.134 3.583-.049 1.218-.601 2.258-1.476 3.097-.3.25-.626.442-.97.625.05.268.154.449.306.674l.141.21.148.218.143.213q.42.622.852 1.234.27.39.532.787l.097.146.188.284.183.27c.22.317.22.317.22.49q-.884.035-1.766.051-.3.007-.6.02c-1.617.063-1.617.063-1.996-.157-.25-.239-.362-.531-.476-.85-.096-.16-.096-.16-.196-.293l-.17-.254-.099-.142a6.5 6.5 0 0 1-.52-.9c-.318-.639-.318-.639-.81-1.143-.672-.21-1.33-.12-2.029-.078v3.668h-3.9z" fill="#074158"/><path d="M127.977 28.628h3.278a97 97 0 0 1 1.752 2.091c.452.561.906 1.12 1.378 1.664q.51.59.987 1.206.297.384.604.758l.14.17q.133.165.27.327l.124.151.109.133c.104.141.179.285.254.444h.234v-6.944h3.745v13.577h-3.199c-.562-.65-1.099-1.269-1.614-1.948a39 39 0 0 0-1.478-1.788q-.418-.488-.816-.992c-.353-.444-.71-.884-1.082-1.312l-.117-.137-.228-.26c-.203-.236-.344-.445-.439-.742h-.156v7.1h-3.746z" fill="#053f56"/><path d="M100.2 9.121a18 18 0 0 1-.6 1.585l-.111.262c-.352.823-.717 1.639-1.082 2.455q-.596 1.334-1.149 2.685-.453 1.102-.926 2.196-.337.785-.67 1.572-.555 1.324-1.147 2.633-.344.766-.636 1.555c-.078.194-.078.194-.156.272q-.197.011-.395.01h-.256l-.278-.002h-.283l-.9-.003h-.607l-1.494-.005-.676-1.486-.21-.46a49 49 0 0 1-.516-1.167l-.12-.28-.117-.274-.209-.486a288 288 0 0 1-1.44-3.407q-.559-1.346-1.125-2.69l-.079-.187a256 256 0 0 0-.75-1.766 92 92 0 0 1-.675-1.613l-.087-.213-.077-.186c-.115-.304-.215-.613-.317-.922h4.603c.663 1.575.663 1.575.901 2.152q.373.905.766 1.801l.069.156.14.316c.454 1.03.88 2.065 1.285 3.115.258.666.537 1.323.819 1.98.196-.196.247-.37.346-.63a37 37 0 0 1 .683-1.619q.445-1.005.873-2.019.625-1.481 1.268-2.955l.42-.969.11-.253.293-.679.078-.181c.064-.137.064-.137.142-.215a7 7 0 0 1 .386-.016l.25-.005q.134 0 .27-.004l1.75-.029c1.392-.024 1.392-.024 1.636-.024" fill="#053f57"/><path d="M27.99 8.872h.293c.873.005 1.663.045 2.492.332l.214.073c.968.343 1.8.802 2.575 1.483l.178.15c.524.444.524.444.68.708-.017.352-.273.534-.512.765-.194.176-.395.34-.6.503-.498.4-.94.849-1.384 1.307-.28-.122-.486-.294-.717-.493-.903-.746-1.864-1.16-3.033-1.165l-.237-.005c-1.123-.006-1.99.442-2.814 1.194a4.1 4.1 0 0 0-.924 1.64l-.048.144c-.118.417-.127.835-.133 1.265q0 .088-.004.178c0 .427.094.754.263 1.143l.089.241c.439 1.127 1.162 1.83 2.252 2.334.988.404 2.087.345 3.07-.024a5.9 5.9 0 0 0 1.865-1.293c.137-.087.137-.087.314-.093.318.125.522.344.764.581l.467.45q.335.318.679.628l.41.375.147.117c.087.117.087.117.087.3-.104.274-.272.45-.478.651l-.126.123c-.757.719-1.637 1.218-2.596 1.618l-.26.12c-1.989.801-4.533.63-6.498-.155-2.014-.866-3.489-2.308-4.321-4.334-.732-2.036-.82-4.11.084-6.099.431-.9.928-1.692 1.632-2.406l.127-.144c1.467-1.614 3.91-2.232 6.003-2.212" fill="#064059"/><path d="M73.065 28.618h.508l.3.001h.314l.854.001h.892a1586 1586 0 0 1 3.612.004q1.979 0 3.957.004v3.043h-6.867l.078 2.107 6.009.078v2.887h-6.087l.078 2.34 7.023.079v3.043H72.812l-.004-4.795q0-1.466-.002-2.93a2531 2531 0 0 1-.003-4.72v-.834c.012-.294.012-.294.262-.308" fill="#074057"/><path d="M28.668 28.618h.507l.3.001h.314l1.746.002a1586 1586 0 0 1 3.612.003q1.98 0 3.957.004v3.043h-6.866v2.185h6.086v2.887l-6.008.078v2.263l7.1.078v2.965H28.415c-.004-3.363-.004-3.363-.004-4.767a4718 4718 0 0 0-.005-6.16v-1.975l-.001-.3c.013-.293.013-.293.263-.307" fill="#064059"/><path d="M84.594 28.628h12.017v3.121h-4.136v10.456h-3.823V31.749h-4.058z" fill="#07425b"/><path d="m45.19 28.628.078 10.456h6.399v3.12h-10.3l-.004-4.794q0-1.466-.002-2.93l-.002-3.266v-1.063l-.001-.923v-.302c.055-1.28 2.55-.298 3.832-.298" fill="#063e57"/><path d="m48.155 46.964.208.083c1.066.476 1.699 1.366 2.155 2.409.296.844.243 1.892-.108 2.709a4.56 4.56 0 0 1-2.39 2.23 4.7 4.7 0 0 1-3.298-.096c-1.166-.6-1.884-1.553-2.292-2.781-.248-.937-.062-1.901.378-2.745.62-1.05 1.43-1.661 2.566-2.056a4.6 4.6 0 0 1 2.781.247" fill="#e78b34"/><path d="m104.559 31.637.208.002c.978.027 1.653.39 2.377 1.046.768.845 1.052 1.936 1.041 3.054-.08.907-.472 1.857-1.132 2.493-1.005.819-2.081.956-3.342.852-.874-.167-1.602-.766-2.107-1.483-.564-.993-.779-2.083-.536-3.204.292-1.044.877-1.796 1.782-2.371a3.44 3.44 0 0 1 1.709-.39m45.481.011.211.001c.956.018 1.734.32 2.442.979.717.768 1.092 1.703 1.072 2.745l-.002.24c-.015.557-.075 1.027-.349 1.52l-.103.203c-.443.807-.986 1.272-1.847 1.593l-.211.086c-.823.223-1.875.186-2.637-.2-.923-.57-1.529-1.315-1.843-2.363-.248-1.051-.139-2.28.419-3.205.699-1.016 1.598-1.608 2.848-1.6" fill="#fcfdfd"/><path d="m52.346 46.796.238-.002.26-.002h.266q.28-.002.561-.002.426-.002.851-.006l.546-.001.254-.003c.968.003 1.726.23 2.446.887.528.545.775 1.123.8 1.882-.03.709-.243 1.27-.737 1.785q-.274.216-.565.41c-.15.126-.15.126-.185.31.073.335.275.556.486.821l.258.333.126.162c.582.76.582.76.582 1.007-1.497.152-1.497.152-1.962-.17a5 5 0 0 1-.525-.918c-.234-.534-.234-.534-.634-.94-.545-.137-1.084-.05-1.639 0l-.078 2.028h-1.794a2854 2854 0 0 1-.008-5.594v-.501l-.001-.7-.001-.21c.001-.573.001-.573.455-.576" fill="#ec913b"/><path d="M16.554 31.749a307 307 0 0 1 1.818-.012l.871-.006c1.019 0 1.757.265 2.515.954.845.882 1.005 1.9.987 3.07a3.27 3.27 0 0 1-1.04 2.314 5 5 0 0 1-.86.546l-.175.102c-.796.403-1.623.335-2.492.318l-.47-.003c-1.138-.011-1.138-.011-1.232-.104q-.011-.326-.01-.651v-2.348a597 597 0 0 0 0-2.241v-1.319c.001-.446.001-.446.088-.62" fill="#fdfefe"/><path d="M67.985 46.768c.609.015.609.015.853.26q.119.159.229.327l.331.4.18.222q.249.307.507.606a34 34 0 0 1 1.522 1.928l.097.13.264.36c.126.183.126.183.298.255v-4.37h1.716v7.491c-1.404 0-1.404 0-1.828-.322q-.185-.225-.356-.458l-.208-.257a32 32 0 0 1-.543-.695 101 101 0 0 0-1.512-1.916l-.13-.163-.124-.153-.108-.134c-.116-.136-.116-.136-.34-.272l.007.157a83 83 0 0 1 .07 4.291h-1.872a3238 3238 0 0 1-.007-5.653l-.003-1.426c.001-.727.323-.604.957-.608" fill="#ea903e"/><path d="M111.592 46.808a56 56 0 0 1 .921-.024l.265-.01.254-.004.234-.006c.198.044.198.044.33.218l.102.217.1.188.097.195.11.219.113.227.111.22c.34.681.653 1.372.952 2.072q.172.386.346.77.258.57.511 1.14.168.378.341.754l.093.203.191.415.092.201.083.181c.06.159.06.159.06.393h-1.873c-.354-.796-.354-.796-.449-1.088l-.057-.172c-.04-.145-.04-.145-.04-.3-1.185.025-2.369.05-3.59.078-.378.898-.378.898-.468 1.404-.676.182-1.334.172-2.028.156.056-.264.151-.498.258-.746l.059-.138c.268-.616.543-1.23.817-1.843q.359-.806.709-1.614.188-.428.389-.85c.235-.49.447-.987.645-1.495l.07-.181c.099-.259.188-.51.252-.78" fill="#eb8a33"/><path d="m136.902 46.789.252-.005.465-.003c.19.027.19.027.319.115.145.201.234.41.331.639l.064.149.136.318.368.854.076.175c.235.541.483 1.076.734 1.61a90 90 0 0 1 1.142 2.525l.189.433.109.25c.077.216.077.216.077.528h-1.873a14 14 0 0 1-.39-1.17l-.078-.235c-.746-.09-1.488-.087-2.238-.082h-.372l-.901.005-.069.134-.42.814-.105.202-.097.187c-.089.145-.089.145-.245.223a6 6 0 0 1-.374.008l-.223-.001-.232-.002-.235-.001-.575-.004c.054-.27.161-.49.288-.734.262-.515.492-1.04.717-1.573l.123-.29q.384-.9.76-1.803.262-.62.541-1.233c.231-.511.438-1.028.629-1.556.219-.606.504-.474 1.107-.477" fill="#ea8c3a"/><path d="M89.354 46.808q.46-.016.922-.024l.264-.01.254-.004.234-.006c.198.044.198.044.331.218l.102.217.092.187.088.193.099.218.101.226.1.219q.306.681.591 1.373c.166.397.34.79.514 1.182l.112.256.748 1.69q.258.581.534 1.153c.064.169.064.169.064.481H92.63c-.183-.458-.323-.933-.468-1.405h-3.59c-.324.697-.324.697-.624 1.405h-1.716c.088-.527.088-.527.208-.808l.079-.185.083-.192.087-.201q.255-.597.526-1.187.224-.485.44-.972l.556-1.234a134 134 0 0 0 .893-2.006c.101-.259.176-.515.249-.784" fill="#ea8b35"/><path d="M59.86 46.808h5.54v1.405h-3.824v1.638h3.433v1.405H61.5v1.716h.377a912 912 0 0 1 2.845-.007l.273-.001h.473c.166.008.166.008.245.087q.01.33.01.663v.188c0 .465 0 .465-.088.553q-.27.01-.54.009h-.173l-.902-.002-1.277-.002-2.883-.005z" fill="#eb8e3b"/><path d="M122.593 46.808h1.717q.011.95.016 1.901.002.441.008.883a122 122 0 0 1 .009 1.178c.014.916-.109 1.832-.657 2.593-.806.81-1.746 1.25-2.892 1.272a3.66 3.66 0 0 1-2.336-.804c-.908-.998-1.027-1.987-1.022-3.28v-.317l.002-.832.002-.85.004-1.666h1.794l.003.415q.004.684.012 1.368l.006.828q.004.478.01.955v.296c.011.655.053 1.402.501 1.92.396.36.749.41 1.275.404.538-.052.877-.323 1.219-.726.221-.357.271-.712.276-1.126l.005-.298.003-.319.004-.329.01-.86.011-.881z" fill="#eb8a32"/><path d="m131.099 46.886.202.084c.449.205.887.465 1.202.853.065.2.065.2.078.39-.141.18-.141.18-.312.312h-.156v.156a8 8 0 0 1-.39.312c-.3-.114-.583-.25-.868-.395-.671-.342-1.254-.375-2-.263a2.82 2.82 0 0 0-1.432 1.381c-.213.65-.12 1.432.144 2.052.326.63.742 1.055 1.425 1.282.992.08.992.08 1.872-.312.162-.145.32-.29.472-.445.153-.1.153-.1.351-.096.229.087.297.17.431.37.164.237.328.443.541.64-.208.56-.918.883-1.425 1.146-.996.413-2.183.415-3.193.044-.999-.444-1.762-1.14-2.248-2.127l-.098-.19c-.387-.88-.324-1.963-.007-2.855.502-1.115 1.328-1.96 2.446-2.46.889-.286 2.105-.235 2.965.121" fill="#ea903e"/><path d="M107.919 47.602c.161.143.161.143.317.377-.008.27-.059.37-.245.567l-.208.164-.206.168c-.199.115-.199.115-.357.108a4 4 0 0 1-.52-.295c-.604-.368-1.181-.58-1.897-.478-.859.258-1.29.801-1.716 1.56-.23.69-.109 1.414.196 2.058.335.592.788 1.002 1.442 1.22.939.085 1.494-.096 2.222-.677.197-.104.197-.104.445-.095.307.096.37.267.532.537.165.143.165.143.312.234 0 .247-.033.415-.192.608-.918.855-2.03 1.001-3.229.977-1.041-.046-1.993-.587-2.697-1.35-.634-.805-1.067-1.84-1.022-2.881.211-1.272.791-2.385 1.835-3.167 1.587-1.043 3.537-.735 4.988.365" fill="#e9923d"/><path d="M81.346 47.189c.858.554.858.554.96.882l.025.142-.411.366c-.135.102-.135.102-.29.102l-.157.312c-.266-.05-.447-.155-.673-.302-.584-.357-1.211-.581-1.902-.478a2.7 2.7 0 0 0-1.61 1.127c-.342.638-.379 1.326-.191 2.025.308.786.69 1.241 1.461 1.6.576.189 1.264.193 1.827-.055a5.4 5.4 0 0 0 .753-.597c.179-.12.179-.12.332-.126.239.125.392.3.574.498l.11.115c.255.28.255.28.255.496-.316.587-1.044.926-1.638 1.159-.923.276-2.205.354-3.092-.053l-.185-.103-.217-.115c-1.02-.591-1.603-1.472-1.981-2.568a4.35 4.35 0 0 1 .466-3.12c1.222-1.88 3.666-2.4 5.584-1.307" fill="#e89038"/><path d="M29.585 46.808h5.618v1.405H31.3v2.029h3.512v1.326H31.3v2.809h-1.716z" fill="#ee872b"/><path d="M36.451 46.808h1.795v6.164h3.901v1.405h-5.696z" fill="#ea8c35"/><path d="m57.363 12.554 1.4-.01.437-.004h.35l.178-.003c.847 0 1.553.192 2.16.798.248.313.36.538.39.936l.015.196c.032.726-.176 1.258-.667 1.793a1.86 1.86 0 0 1-1.322.517h-.202l-.404-.002-.716-.002-1.62-.005z" fill="#fbfcfc"/><path d="M47.663 48.413c.375.219.646.45.883.814l.096.127c.338.522.312 1.23.216 1.824-.207.759-.685 1.355-1.327 1.794-.51.237-1.157.241-1.7.1-.701-.261-1.144-.696-1.499-1.348-.26-.635-.27-1.414-.073-2.07.284-.612.661-1.03 1.262-1.336a2.86 2.86 0 0 1 2.142.095" fill="#fefdfb"/><path d="m63.163 31.652.176-.002.373-.002q.28-.002.56-.008c.807-.008 1.493.07 2.215.47.374.43.617.916.579 1.494-.08.503-.23 1.025-.652 1.344-.637.326-1.195.478-1.908.479h-1.684c-.232-.01-.232-.01-.31-.089a5 5 0 0 1-.01-.337v-3.107c.024-.347.391-.239.66-.242" fill="#f7f9f9"/><path d="M118.545 31.657h.161q.237 0 .473-.003c1.857-.003 1.857-.003 2.4.485.403.411.569.775.576 1.351-.011.535-.091.898-.477 1.28-.615.503-1.349.656-2.129.657h-1.576c-.217-.01-.217-.01-.295-.089a5 5 0 0 1-.01-.337l-.001-.217v-.476l.001-.505-.001-.775v-.725l.001-.217v-.192c.026-.388.589-.236.877-.237" fill="#f8f9fa"/><path d="M83.502 46.886h1.794a3171 3171 0 0 1 .008 5.595v.5l.001.7.001.21c0 .477 0 .477-.087.564q-.182.011-.364.01h-1.117c-.158-.01-.158-.01-.236-.088q-.011-.349-.009-.697v-.22l.001-.73v-.503l.002-1.328.002-1.354q0-1.329.004-2.659" fill="#e68a34"/><path d="M43.006 13.49c.233.197.31.4.413.684a32 32 0 0 0 .506 1.286l.183.44.124.299c.304.772.304.772.66 1.52.064.141.064.141.064.453h-3.745c.06-.363.122-.608.26-.939l.11-.27.118-.278q.436-1.044.838-2.102l.066-.173.055-.145.094-.248.096-.255c.08-.193.08-.193.158-.271" fill="#f6f9fa"/><path d="M141.32 13.647h.234l.074.197.102.266.098.26c.105.268.221.53.339.792.18.406.351.816.523 1.225l.225.533.105.249q.116.273.238.544c.091.225.091.225.091.46h-3.824a4.7 4.7 0 0 1 .279-.785c.277-.637.538-1.28.799-1.923l.392-.968.072-.178c.09-.223.177-.444.253-.672" fill="#f4f8f9"/><path d="M107.378 13.647a75 75 0 0 1 1.463 3.36l.099.247c.121.306.231.598.311.918h-3.824c.263-.787.263-.787.423-1.154l.106-.244.11-.255c.323-.752.621-1.508.893-2.28l.071-.203.062-.177c.083-.212.083-.212.286-.212" fill="#f6f8f9"/><path d="M75.777 13.647h.234l.487 1.263.093.244.098.252q.109.287.215.575c.22.6.456 1.18.738 1.756.086.201.086.201.086.435H74.06c.063-.378.15-.68.294-1.027l.065-.16.207-.5.136-.33q.346-.845.7-1.688c.112-.271.214-.545.315-.82" fill="#f5f9f9"/><path d="M53.695 48.29q.465-.012.932-.019l.264-.008c.607-.007 1.096.062 1.586.44.211.21.292.415.315.705-.027.435-.221.758-.522 1.068-.674.44-1.734.348-2.497.312-.078-.078-.078-.078-.087-.31l.002-.305v-.162l.002-.516.002-.348z" fill="#fefcf3"/><path d="M96.688 52.348c.329.25.611.608.703 1.015.047.551-.096.92-.332 1.414l-.093.205c-.17.366-.342.714-.59 1.034-.245.081-.42.086-.678.083l-.235-.003-.18-.002c-.01-.26.007-.446.113-.683.131-.335.239-.67.2-1.034l-.19-.19c-.226-.226-.234-.275-.244-.58.026-.492.2-.767.522-1.137a1.26 1.26 0 0 1 1.004-.122" fill="#e89243"/><path d="M114.321 28.617h.204l.212-.001 1.187-.002h1.02l1.307-.003 1.486-.002.876-.001h.347c.151.02.151.02.463.176l-7.49-.078v13.343h3.667l-.007-2.297-.001-.431-.001-.228v-.216l-.001-.187c.01-.153.01-.153.088-.309h2.107v.078h-2.029v3.746h-3.98l-.004-5.276-.001-2.45-.002-2.134-.001-1.13V30.15l-.001-.391v-.834c.017-.396.203-.308.554-.31" fill="#63899c"/><path d="M112.528 48.681c.244.08.307.148.433.377l.114.278.062.15.127.312q.095.24.195.478c.317.778.317.778.317 1.136h-2.262c-.088-.264-.077-.288.034-.526l.079-.173.087-.184.173-.379.088-.19q.184-.409.358-.82l.114-.27z" fill="#fef8eb"/><path d="m136.873 48.681.234.078c.086.203.086.203.17.473.167.511.388.979.642 1.452.142.27.202.415.202.728h-2.263a4 4 0 0 1 .211-.742l.081-.2.084-.204.081-.2.162-.4q.2-.492.396-.985" fill="#fefaf0"/><path d="M90.212 48.837h.234c.266.558.515 1.112.713 1.698.067.193.067.193.223.409.015.205.015.205 0 .39-.078.078-.078.078-.28.087l-.266-.001-.287-.001-.303-.002-.303-.001-.745-.004c.048-.29.131-.538.25-.807q.053-.117.104-.236l.109-.245.212-.48.095-.214q.127-.294.244-.593" fill="#fefaf2"/><path d="m12.731 28.628 3.667-.015 1.15-.006.692-.001q.228 0 .455-.003c.956-.007 1.843.037 2.775.259v.078q-.327-.016-.653-.034l-.188-.01c-.468-.025-.468-.025-.642-.112q-.338-.014-.676-.016l-.216-.002-.693-.007-.427-.004-1.587-.015-3.579-.034v13.343h7.179v.078H12.73z" fill="#34677d"/><path d="M83.502 46.886h1.794v7.491l-.39-.078.156-.234c.015-.222.02-.435.018-.657v-.203l-.002-.665-.001-.46q0-.608-.004-1.214l-.003-1.238q-.002-1.215-.008-2.43-.244-.023-.487-.043l-.275-.025a1.4 1.4 0 0 0-.564.069c-.087.351-.092.697-.094 1.057a563 563 0 0 0-.026 2.506l-.012 1.221-.024 2.394h-.078z" fill="#e69e5e"/><path d="M16.554 31.749h3.278v.078l-3.122.078v6.944l3.59-.077c-.273.181-.395.243-.715.244H16.69c-.136-.01-.136-.01-.214-.088q-.011-.326-.01-.651v-2.348a597 597 0 0 0 0-2.241v-1.319c.001-.446.001-.446.088-.62" fill="#b2c5d1"/><path d="M45.659 46.886c-.327.218-.541.313-.937.313l-.049.128c-.147.253-.354.427-.57.618-.531.473-.531.473-.941 1.048l-.21.337-.103.165-.077.122-.078-.312h.155l-.077-.234.156-.078-.078-.234c.359-.778 1.086-1.466 1.872-1.795.316-.08.612-.085.936-.078" fill="#dc7f2e"/><path d="M122.594 46.808h1.716v4.994h-.078V47.2l-.39-.079-.156-.078-1.014-.078v3.668h-.078z" fill="#df9151"/><path d="M29.585 46.808h5.618v1.405h-3.824v-.078h3.746c.039-.931.039-.931-.234-1.17-.23-.027-.23-.027-.505-.026l-.157-.002-.514-.005-.356-.005-.939-.01-.957-.01q-.939-.012-1.878-.02z" fill="#e69548"/><path d="m67.194 24.024.078.234 4.214.078v.079h-9.052v-.079l.168-.002a1015 1015 0 0 0 3.284-.05l.291-.005.27-.005.238-.003c.207-.005.207-.005.431-.09z" fill="#aab9c0"/><path d="M12.731 28.628q1.432-.009 2.865-.012.666-.002 1.331-.006a276 276 0 0 1 1.775-.007c.953-.007 1.838.037 2.768.259v.078q-.327-.016-.653-.034l-.188-.01c-.468-.025-.468-.025-.642-.112a19 19 0 0 0-.683-.016l-.215-.002-1.191-.012-2.595-.024-2.572-.024z" fill="#557786"/><path d="M40.82 9.2h4.448v.233l-.27-.04c-.519-.058-1.038-.033-1.56-.015l-.525.017c-.47.015-.925.037-1.39.116-.2-.026-.2-.026-.38-.073l-.185-.046-.137-.037z" fill="#1c3746"/><path d="M31.38 50.242h3.433v1.326H31.3v-.078l.268-.005 1.407-.028.803-.016c.304-.007.54-.019.8-.185h.078v-.78c-.335-.084-.649-.096-.991-.103l-.199-.005-.624-.014-.425-.01-1.038-.025z" fill="#de8538"/><path d="M130.786 46.886c.646.05 1.293.453 1.717.937.073.224.073.224.078.39l-.312.156-.122-.21c-.167-.254-.365-.392-.617-.558-.148-.112-.193-.239-.275-.402-.2-.064-.2-.064-.391-.079z" fill="#e28630"/><path d="M121.501 16.534h.156c.127.195.127.195.234.39l-.312.078v7.334h-.078z" fill="#bbcedb"/><path d="M131.645 53.675v.468c-.899.396-1.69.4-2.653.39v-.078l.239-.003c.781-.023.781-.023 1.399-.465a8 8 0 0 1 .546-.156c.235-.156.235-.156.469-.156" fill="#ee8731"/><path d="M29.585 46.886h.624l-.156.117c-.184.23-.179.36-.152.648-.004.172-.004.172-.084.385-.093.312-.072.585-.042.903.037.474.043.909-.034 1.38h-.078c-.104-.702-.087-1.403-.083-2.111l.001-.385q0-.468.004-.937" fill="#e37926"/><path d="M41.913 53.753h.078l.078.624h-3.745c.185-.185.224-.176.475-.181l.198-.005.215-.002.22-.005.696-.012.472-.009 1.157-.02z" fill="#ea8421"/><path d="M133.595 53.05c.036.512-.041.74-.312 1.17v.235h-.546c.055-.31.201-.56.351-.834l.149-.274c.169-.297.169-.297.358-.297" fill="#ea7e2a"/><path d="M36.53 46.886h1.638v.313l-.206-.04-.272-.048-.269-.05c-.307-.038-.307-.038-.736.138l-.078 2.496h-.078z" fill="#df7a24"/><path d="m119.55 54.143.157.156c.21.026.412.044.624.054l.181.01c.394.018.771.006 1.162-.06l.139-.004.156.156a3.7 3.7 0 0 1-2.731-.156 6 6 0 0 1-.312-.234c.285-.095.361-.05.624.078" fill="#fa9e4a"/><path d="M140.696 53.363h.156q.079.165.156.331l.088.187c.068.184.068.184.068.496h-1.717l-.078-.156a9 9 0 0 1 1.327-.078l-.044-.259c-.034-.287-.034-.287.044-.521" fill="#d87f32"/><path d="m117.737 31.584.178.001.191.001.201.002.202.001.495.004v.078l-1.248.078-.078 3.511h-.078a60 60 0 0 1-.088-2.843l-.001-.224v-.205l.001-.18c.013-.187.038-.212.225-.224" fill="#0e516f"/><path d="M97.313 33.466c.102.365.122.74.038 1.11a4 4 0 0 0-.046.715v.284l.003.295v.299l.005.73c-.361-.361-.252-1.01-.254-1.488l-.005-.252a5.6 5.6 0 0 1 .259-1.693" fill="#4a7589"/><path d="M127.509 9.2h2.965l-.312.233v-.156h-.312v.156a117 117 0 0 1-1.109.014c-.443.003-.814-.02-1.232-.17z" fill="#073148"/><path d="M35.125 47.9v.235h-3.59v-.078l1.308-.067.445-.023.64-.032.2-.01c.333-.017.663-.028.997-.024" fill="#eb8017"/><path d="M149.521 28.384h1.329c.213.01.407.04.614.088v.078c-.965.124-1.921.09-2.887 0v-.078c.318-.06.62-.088.944-.088" fill="#43687d"/><path d="M72.188 46.886h.078v4.37c-.292-.097-.327-.206-.468-.468l.312-.078z" fill="#f2ecdd"/><path d="m42.772 48.915.234.078-.157.312h-.155c-.089.73-.086 1.452-.079 2.185l-.234-.156a5 5 0 0 1-.034-.654l.001-.19c.012-.497.052-1.204.424-1.575" fill="#ef883e"/><path d="m106.754 54.299-.078.156c-.498.165-.961.175-1.483.166l-.228-.002-.552-.008v-.156l-.234-.078.878.005.251.002h.243l.223.002c.336-.015.637-.095.98-.087" fill="#f38f2f"/><path d="M32.784 10.214c1.333.832 1.333.832 1.463 1.306l.02.176c-.299-.121-.489-.309-.703-.546v-.156h-.156v-.156h-.156v-.156l-.19-.059-.2-.097c-.052-.163-.052-.163-.078-.312" fill="#163242"/><path d="M136.014 46.808h1.795l.078.312q-.12-.007-.242-.017l-.319-.022-.159-.01c-.568-.068-.568-.068-1.075.128z" fill="#dd802e"/><path d="M157.55 34.324c.144.246.176.427.177.71v.228l-.002.237.002.238v.228l-.001.208c-.02.18-.02.18-.176.414-.136-.136-.088-.32-.089-.504v-.263l.001-.277-.001-.275v-.263l.001-.243c.01-.204.01-.204.088-.438" fill="#376784"/><path d="M53.54 53.675h.077v.702h-1.716v-.546l.156-.078.078.39.16-.003.21-.002.209-.003c.185.007.336.04.513.086.17-.03.17-.03.312-.078z" fill="#ea7e25"/><path d="M67.116 46.808h1.405l.078.312c-.234 0-.234 0-.459-.043-.244-.035-.396-.011-.634.043q-.195.005-.39 0z" fill="#da8036"/><path d="M122.672 48.29h.078c.135 2.306.135 2.306 0 2.576l.078.234c-.074.248-.074.248-.156.468h-.078z" fill="#e67a28"/><path d="m106.676 46.808-.156.078-.184-.072c-.416-.122-.819-.1-1.25-.093l-.264.002-.643.007c.741-.493 1.784-.402 2.497.078" fill="#fee4b9"/><path d="M115.025 54.143h1.873v.234h-1.873z" fill="#e67c26"/><path d="m29.166 20.664.193.002.148.003c-.448.299-.853.337-1.375.332l-.178.002c-.308-.002-.52-.028-.788-.178l.134-.006.598-.028.21-.01q.099-.003.201-.01l.186-.008c.242-.025.415-.102.67-.099" fill="#bbd3df"/><path d="M19.753 15.051h.078q.004.428.005.854l.002.246.001.234.001.216c-.009.167-.009.167-.087.245q-.027.216-.044.434l-.02.24-.014.184h-.078a119 119 0 0 1-.013-1.138 6 6 0 0 1 .17-1.515" fill="#507990"/><path d="m73.904 46.886-.078.313-.134-.023c-.412-.06-.718-.058-1.114.1-.148.116-.148.116-.234.235v-.547l.777-.05c.262-.017.52-.028.783-.028" fill="#da7c1f"/><path d="M131.411 52.27c.089.287.089.287-.01.512-.166.215-.285.323-.537.425-.219-.064-.219-.064-.39-.157l.161-.126q.393-.32.776-.654" fill="#f09b4f"/><path d="M107.768 47.589c.312.156.312.156.468.39-.004.195-.004.195-.078.39l-.39.234z" fill="#e7994d"/><path d="M117.522 46.964h1.638l-.078.235-.244-.04c-.568-.085-.568-.085-1.082.117-.099.16-.099.16-.156.313h-.078z" fill="#e67c1d"/><path d="M125.871 52.192c.156.078.156.078.234.312l.156.078-.078.156.234.078c.312.348.312.348.312.547h.156v.156h.234v.156c-.454-.079-.719-.433-.98-.791-.268-.413-.268-.413-.268-.692" fill="#e1874d"/><path d="M134.532 50.32h.156l-.046.134a13 13 0 0 0-.266.865c-.075.237-.142.383-.312.561h-.157a12 12 0 0 1 .625-1.56" fill="#f18d43"/><path d="M49.716 52.816h.156c-.132.311-.315.538-.546.78h-.312l.156-.545a1.7 1.7 0 0 1 .468-.079z" fill="#dc7f2b"/><path d="M45.659 46.652c.896-.034 1.653-.027 2.496.312-.292.103-.532.06-.834.01l-.273-.043c-.219-.045-.219-.045-.297-.123a15 15 0 0 0-.551-.044l-.305-.02-.236-.014z" fill="#e5a765"/><path d="M68.755 53.519h.078v.858h-1.717v-.078l1.56-.156z" fill="#e38539"/><path d="m110.967 52.504.156.078a16 16 0 0 0 .796.03l.58.014.392.01.963.024v.078l-.26.006-1.37.033-.595.015-.186.004a3.2 3.2 0 0 0-.788.099z" fill="#f18720"/><path d="M107.144 47.199c.449.136.449.136.624.312-.029.204-.029.204-.078.39-.224-.05-.224-.05-.468-.156-.107-.244-.107-.244-.156-.468z" fill="#e38d37"/><path d="M147.406 41.893h.937l.078.156c.145.03.145.03.312.039.17.012.17.012.312.039l.078.156c-.611.049-1.14-.131-1.717-.312z" fill="#507084"/><path d="M134.688 50.476a.9.9 0 0 1 .078.312 7 7 0 0 1-.234.39l-.069.214c-.118.343-.296.644-.478.956h-.078v-.468h.157c.108-.2.19-.402.268-.614.1-.274.22-.532.356-.79" fill="#ea802b"/><path d="M29.585 46.886h.624l-.156.117c-.188.235-.173.373-.157.666.001.206-.064.361-.155.544h-.078z" fill="#dd7319"/><path d="M59.86 46.886h1.95c-.156.156-.156.156-.467.166q-.288-.007-.574-.016l-.187-.003-.17-.006c-.188.018-.312.078-.474.172z" fill="#e57d1d"/><path d="M140.852 53.83h.078v.469c-.258.13-.546.086-.829.083l-.19-.001-.464-.004-.078-.156a5.1 5.1 0 0 1 1.483 0z" fill="#e27522"/><path d="m117.738 31.584.177.001.191.001.201.002.202.001.495.004v.078l-.27.014-.349.02-.178.01c-.289-.01-.289-.01-.529.112q-.018.174-.025.35l-.01.212-.009.223-.01.225-.024.55h-.078l-.005-.853-.002-.246-.001-.234-.001-.217c.011-.205.018-.24.225-.253" fill="#124964"/><path d="M100.2 9.121a29 29 0 0 1-.469 1.327l-.156-.157c.02-.33.229-1.17.625-1.17" fill="#20415a"/><path d="m122.672 46.964.497-.01.28-.005c.237.015.237.015.393.171l-.936.078-.156.469h-.078z" fill="#de7919"/><path d="M36.53 46.886h1.638v.313l-.18-.035a6.8 6.8 0 0 0-1.459-.122z" fill="#d96b18"/><path d="m62.555 46.8.254.002.264.001.268.002.654.003c-.298.199-.534.171-.878.161-.42-.01-.813.002-1.229.073v-.156c.244-.08.412-.087.667-.085" fill="#e48527"/><path d="M134.454 53.987h.156c-.029.19-.029.19-.078.39-.225.112-.423.085-.673.083l-.281-.002-.217-.003.078-.156c.197-.028.392-.035.59-.044.221-.04.279-.104.425-.268" fill="#ed872f"/><path d="M89.432 46.886h1.873l.078.313-.192-.078c-.33-.094-.619-.099-.96-.093h-.18c-.32-.004-.32-.004-.62.092z" fill="#e77a1b"/><path d="M91.383 51.022c.156.234.156.234.234.468h-2.42v-.078l2.108-.078z" fill="#ecaa6b"/><path d="M83.58 46.886h1.404v.078l-.463.03-.26.016-.213.032-.078.157h-.234l-.078.39h-.078z" fill="#d5802f"/><path d="m104.491 46.652.751-.01.214-.003c.387-.003.701.016 1.064.17v.077l-.38.005-.214.003c-.186-.008-.186-.008-.342-.086a17 17 0 0 0-.556-.044l-.303-.02-.234-.014z" fill="#f5a953"/><path d="m68.755 49.851.39.078.078.313-.39-.235v1.795h-.078z" fill="#dfa866"/><path d="M99.654 30.032c0 .323-.134.407-.352.64l-.197.212-.154.163-.156-.156.254-.298.142-.167c.144-.153.29-.273.462-.394" fill="#1e425b"/><path d="M127.275 49.851v1.405l-.234-.078.034-.62.009-.178c.031-.529.031-.529.191-.529" fill="#e08f34"/><path d="M157.472 36.665c.102.285.051.474-.034.76l-.068.233-.054.177-.156-.078c-.023-.58-.023-.58.156-.858h.156z" fill="#174c67"/><path d="M95.596 55.391h.156v.234l.156.078v.313h-.546v-.234h.156z" fill="#f0882e"/><path d="m132.347 52.973.312.234c-.116.296-.288.443-.546.624h-.156c.024-.147.024-.147.078-.312l.234-.156c.057-.2.057-.2.078-.39" fill="#e88d46"/><path d="M51.979 46.886h1.17c-.234.156-.234.156-.507.151-.264-.02-.264-.02-.415.103-.112.16-.112.16-.248.449z" fill="#e68021"/><path d="m121.813 52.895-.078.39-1.17-.078v-.078l.199-.032.259-.042.258-.04c.195-.038.338-.12.532-.12" fill="#ec9747"/><path d="M121.033 9.433c.276.268.524.544.766.844l.186.23.14.175h-.234l-.156-.312h-.234l-.228-.412c-.085-.147-.085-.147-.24-.29z" fill="#1c384a"/><path d="m68.833 50.007.312.157-.156.156c-.03.189-.03.189-.033.407l-.009.244-.007.256-.03.887h-.077z" fill="#f1eadd"/><path d="M135 49.383c.083.25.084.442.078.703q-.193.076-.39.156c.034-.356.066-.592.312-.859" fill="#ec8532"/><path d="m82.02 52.816.39.313c-.032.225-.062.298-.24.448l-.15.098c-.092-.273-.054-.424 0-.703z" fill="#e99d4c"/><path d="m78.118 48.447.156.078-.858.858-.156-.078.253-.297.143-.168c.144-.153.29-.273.462-.393" fill="#fceeda"/><path d="m44.02 47.355.156.078c-.115.304-.272.385-.546.546-.14.161-.14.161-.234.312l-.234-.078z" fill="#d6844d"/><path d="M50.574 50.944c.013.384.02.663-.156 1.014h-.234l.078-.468h.156l-.005-.23c.007-.316.007-.316.161-.316" fill="#db872b"/><path d="M99.732 30.032h.156c-.12.268-.281.478-.469.703l-.156-.078.225-.312.126-.176zm-1.015.937.234.078-.078.156h-.234z" fill="#05314e"/><path d="m42.772 48.915.233.078-.156.312h-.156l-.078.703-.156-.079c.04-.388.121-.674.313-1.014" fill="#de894c"/><path d="m129.894 48.032.176-.008c.17.033.17.033.482.345l-1.404-.156v-.078c.248-.064.491-.091.746-.103" fill="#f0a04c"/><path d="M107.066 14.037c-.24.824-.24.824-.39 1.17-.096-.274-.059-.443.029-.717l.065-.208c.091-.245.091-.245.296-.245" fill="#16425d"/><path d="M97.079 52.973h.156c.175.35.169.63.156 1.014l-.156.078-.015-.14a8 8 0 0 0-.141-.953" fill="#db9b58"/><path d="M125.246 20.825c.278.208.509.412.703.702l-.078.235-.312-.337-.176-.19c-.137-.176-.137-.176-.137-.41" fill="#1a3b51"/><path d="M86.077 9.2h1.638v.311l-.234-.078v-.156h-1.404z" fill="#163b44"/><path d="m106.988 52.348.156.078c-.373.523-.373.523-.77.62l-.244.005c.174-.183.358-.334.561-.483l.169-.126z" fill="#efa967"/><path d="M76.401 47.745c0 .314-.128.453-.312.702l-.156.078-.078.234H75.7c.119-.422.412-.701.702-1.014" fill="#de9258"/><path d="M45.893 48.135a99 99 0 0 1 .992-.014l.212-.002.195-.002c.161.018.161.018.317.174-.234.078-.234.078-.468 0a21 21 0 0 0-.639-.044l-.177-.01-.432-.024z" fill="#eda150"/><path d="M84.204 23.244h.156q.082.15.161.302l.09.17.061.152-.078.156c-.27-.17-.38-.315-.468-.624z" fill="#2e4558"/><path d="M19.831 16.768q.03.226.054.453l.03.255c-.006.228-.006.228-.121.375l-.119.087-.005-.541-.002-.305c.01-.324.01-.324.163-.324" fill="#1b495e"/><path d="M58.143 50.788c.06.133.06.133.078.312-.146.184-.146.184-.346.37l-.2.19-.156.142-.234-.078.148-.125.193-.168.192-.164c.158-.156.242-.276.325-.48" fill="#feefd2"/><path d="M72.188 50.554h.078v.702c-.292-.097-.327-.206-.468-.468l.15-.03.162-.048z" fill="#faf4e0"/><path d="M125.09 40.254c.28.264.504.528.703.858v.156h-.156a11 11 0 0 1-.235-.39l-.156-.156a11 11 0 0 1-.156-.468" fill="#193646"/><path d="M111.748 33.388c.21.315.244.542.239.916l-.002.19-.003.142-.234-.078z" fill="#53798e"/><path d="M95.284 28.706h1.248l-.078.39-.078-.234-.234.078v-.156h-.858z" fill="#0b344e"/><path d="M40.82 9.277h1.327c-.21.21-.328.213-.624.234a7 7 0 0 1-.702-.156z" fill="#04283f"/><path d="m48.155 52.895-.078.233-.126-.048c-.25-.04-.42.037-.654.127.143-.429.463-.319.858-.312" fill="#e08021"/><path d="M47.921 48.447c.161.034.161.034.312.078l.078.312h.157v.234l.155.078h-.233a9 9 0 0 1-.39-.468l-.157-.156z" fill="#e08d45"/><path d="M127.119 53.753c.331.102.63.23.936.39l-.078.156c-.389-.1-.591-.248-.858-.546" fill="#e48b4a"/><path d="m96.22 52.504-.312.468-.234-.078v-.312c.192-.096.334-.083.546-.078" fill="#e28333"/><path d="M111.67 46.886h1.326v.078l-.214.012-.278.018-.277.016c-.257.016-.257.016-.479.189z" fill="#e57c25"/><path d="M53.227 46.808h1.015v.078c-.735.18-.735.18-1.093.156z" fill="#e58a34"/><path d="M96.454 52.426c.186.02.186.02.39.078.103.161.103.161.157.312l-.547-.078z" fill="#de8132"/><path d="M128.29 48.681a1.35 1.35 0 0 1-.439.566l-.15.123-.114.091c.103-.327.314-.78.703-.78" fill="#feeed5"/><path d="m103.165 38.85 1.014.234c-.354.177-.483.175-.858.078z" fill="#2e4f63"/><path d="M48.546 51.724h.078c-.039.509-.039.509-.24.697l-.15.083-.157-.078.23-.35.128-.198z" fill="#f4a051"/><path d="M131.957 47.667h.234v.156l.234.078v.156h-.156l.078.312c-.204-.102-.209-.184-.283-.395l-.061-.174z" fill="#ea8728"/><path d="M117.366 23.478c.156.312.156.312.156.624l.468.078v.078h-.624z" fill="#123950"/><path d="m105.037 9.2.156.233-.312.624h-.156c.095-.29.196-.575.312-.858" fill="#204258"/><path d="M119.355 54.04c.212.112.303.215.43.415l-.342-.107-.192-.06c-.169-.067-.169-.067-.325-.223.234-.078.234-.078.429-.024" fill="#f29d5b"/><path d="m101.604 52.27.078.156.234.078c.111.227.18.457.234.703a2.5 2.5 0 0 1-.546-.703z" fill="#e08647"/><path d="m127.899 48.681.234.078-.468.546-.156-.078c.101-.225.208-.38.39-.546" fill="#ef9a44"/><path d="m104.101 48.447.156.078-.702.702-.156-.078z" fill="#fcefdb"/><path d="m126.963 47.51.078.235-.234.078-.073.156c-.083.156-.083.156-.249.214l-.146.02c.181-.29.334-.516.624-.702" fill="#e0935a"/><path d="m127.275 47.667.156.078-.156.078zm-.156.156.156.078-.468.39v-.312c.146-.083.146-.083.312-.156m-.468.468.156.078-.156.078z" fill="#e28634"/><path d="m21.938 37.68.078.233c-.151.21-.151.21-.312.39l-.312-.078.185-.141c.216-.164.216-.164.361-.405" fill="#285b7c"/><path d="m98.561 31.125.234.156-.468.468-.156-.078z" fill="#24435d"/><path d="M131.333 28.94c.355.118.507.403.702.702h-.234l-.064-.19-.092-.2-.234-.078z" fill="#1e3847"/><path d="M31.536 19.343q.195.033.39.078c-.37.302-.37.302-.546.39.068-.38.068-.38.156-.468" fill="#16364d"/><path d="M125.324 14.74c.329.116.448.333.625.623l-.156.156-.078-.312h-.156v-.156h-.157z" fill="#103243"/><path d="m23.187 10.136.156.078c-.078.234-.078.234-.22.331-.17.059-.17.059-.483-.02z" fill="#264661"/><path d="M50.34 49.383h.156l.078.546-.156-.078-.156.313z" fill="#dd954e"/><path d="M132.581 30.345c.283.206.46.391.624.702l-.156.078v-.156h-.156v-.156h-.156z" fill="#163040"/><path d="M121.501 16.534h.156c.127.195.127.195.234.39l-.151.03-.161.048-.078.156z" fill="#d3e2e9"/><path d="m98.327 12.944.234.079-.234.624h-.156c.038-.244.078-.468.156-.703" fill="#12425b"/><path d="M47.141 53.129v.156l-.468.156v-.156l-.312-.078a3 3 0 0 1 .78-.078" fill="#e5812a"/><path d="m48.546 49.227.234.078v.234h.156l.078.39-.156.078q-.08-.15-.156-.302l-.088-.17c-.069-.152-.069-.152-.069-.308" fill="#d78040"/><path d="M73.124 47.042v.078l-.258.064c-.258.083-.362.12-.522.327v-.39c.25-.126.502-.083.78-.079" fill="#da832a"/><path d="M129.928 46.73v.156h-.78v-.156c.288-.074.492-.074.78 0" fill="#e18630"/><path d="m100.122 29.642.156.078-.312.469-.078-.157-.157-.078z" fill="#1e4763"/><path d="M137.419 13.335h.078v.546l-.312.156z" fill="#264b68"/><path d="M143.349 9.2c.185.019.185.019.39.077.14.2.156.3.156.546h-.156l-.107-.224c-.112-.244-.112-.244-.283-.4" fill="#284454"/><path d="M140.93 53.83c.117.098.117.098.234.235v.312h-.39l.156-.078z" fill="#c26c32"/><path d="m108.627 54.143.702.078v.078l-.858.078z" fill="#ef842a"/><path d="M44.098 53.753h.234v.156l.151.024.161.054.078.234a3 3 0 0 1-.624-.312z" fill="#ef8d3e"/><path d="m126.495 53.129.234.078v.156h.156v.156h.234v.156c-.295-.042-.433-.165-.624-.39z" fill="#e07b3d"/><path d="M43.474 53.129c.458.282.458.282.546.546-.253-.044-.389-.107-.546-.312z" fill="#ee8129"/><path d="M110.577 49.383h.078c-.036.317-.068.583-.234.858h-.156c.081-.301.159-.584.312-.858" fill="#ee9851"/><path d="m45.112 48.525.156.078a31 31 0 0 1-.35.427l-.118.12h-.156c.113-.264.26-.43.468-.625" fill="#fcead0"/><path d="M38.402 28.706h.624l-.078.39h-.156v-.312h-.39z" fill="#072b43"/><path d="M33.72 20.981c.224.1.392.198.547.39v.235h-.157l-.078-.235-.312-.234z" fill="#132938"/><path d="M24.28 18.328c.152.23.277.451.39.703l-.079.156c-.159-.11-.226-.2-.267-.389a12 12 0 0 1-.045-.47" fill="#39556a"/><path d="M87.95 53.987v.312h-.625l.312-.078v-.156c.156-.078.156-.078.312-.078" fill="#e3782a"/><path d="m107.144 52.27.39.078v.234l-.234.078z" fill="#e8802a"/><path d="M127.119 50.242h.078l.078 1.014-.234-.078z" fill="#e88825"/><path d="m102.384 47.745.234.078-.39.39-.234-.078z" fill="#e4914c"/><path d="m144.753 40.098.312.156v.156l.234.078-.156.156c-.195-.141-.195-.141-.39-.312z" fill="#19435f"/><path d="m155.989 39.708.156.156-.39.468-.156-.234z" fill="#164b6a"/><path d="m133.127 36.509.156.078v.156l.234.078v.156h.156l-.078.234c-.434-.401-.434-.401-.468-.702" fill="#103b4e"/><path d="M148.499 28.628h-.235v.156c-.203.073-.284.09-.487.005l-.137-.083c.58-.19.58-.19.859-.078" fill="#5a7a8c"/><path d="M82.097 18.406h.156l.234.703c-.236-.158-.29-.216-.39-.469z" fill="#234a64"/><path d="M90.914 17.236h.156l.157.546-.313-.156z" fill="#1a425b"/><path d="M66.18 16.3h.234l-.156.624-.156-.078z" fill="#15435b"/><path d="M84.984 13.413c.156.156.156.156.156.468h.156l-.156.312-.234-.702z" fill="#194158"/><path d="M65.01 10.838c.295.116.437.293.623.546H65.4c-.39-.427-.39-.427-.39-.546" fill="#113244"/><path d="M78.43 10.214c.301.2.308.36.39.702-.234-.078-.234-.078-.326-.264-.064-.204-.064-.204-.064-.438" fill="#173e51"/><path d="M109.875 10.136h.156l.234.702c-.236-.158-.29-.215-.39-.468z" fill="#27475c"/><path d="M78.04 9.277h.156c.112.184.163.272.127.488l-.049.136-.156-.078a9 9 0 0 1-.078-.546" fill="#2a4a59"/><path d="m68.755 49.851.39.078.078.313-.39-.235-.078.157z" fill="#ec9f5f"/><path d="M138.745 48.837c.21.21.239.42.312.702h-.234z" fill="#d59253"/><path d="M132.347 47.745c.122.097.122.097.234.234-.015.166-.015.166-.078.312l-.156.078-.078-.312h.156z" fill="#e5964d"/><path d="M81.941 47.667q.201.19.39.39v.156l-.234.078z" fill="#e39c4f"/><path d="m65.868 35.182-.078.234c-.228.064-.349.095-.571.005l-.132-.083.303-.078.17-.044c.151-.034.151-.034.308-.034" fill="#32576b"/><path d="M142.881 33.778h.078c.072.368.096.598-.078.936h-.078c-.012-.669-.012-.669.078-.936" fill="#446e89"/><path d="m34.267 21.45.156.077c-.025.186-.025.186-.078.39l-.234.157c.068-.449.068-.449.156-.625" fill="#2f4a5e"/><path d="M123.998 19.343c.19.063.19.063.39.156l.078.234-.234.078c-.234-.293-.234-.293-.234-.468" fill="#0f3448"/><path d="M79.679 13.023h.156c.111.183.162.271.126.487l-.049.137q-.037-.154-.078-.312h-.156z" fill="#203f55"/><path d="m138.823 10.057.156.156c-.014.161-.014.161-.078.313l-.234.078z" fill="#264660"/></g></g><defs><clipPath id="clip0_56_16"><rect x="10" y="6" width="149.813" height="51.888" rx="5" fill="#fff"/></clipPath><filter id="filter0_d_56_16" x="0" y="0" width="169.813" height="71.888" filterUnits="userSpaceOnUse" color-interpolation-filters="sRGB"><feFlood flood-opacity="0" result="BackgroundImageFix"/><feColorMatrix in="SourceAlpha" values="0 0 0 0 0 0 0 0 0 0 0 0 0 0 0 0 0 0 127 0" result="hardAlpha"/><feOffset dy="4"/><feGaussianBlur stdDeviation="5"/><feComposite in2="hardAlpha" operator="out"/><feColorMatrix values="0 0 0 0 0 0 0 0 0 0 0 0 0 0 0 0 0 0 0.25 0"/><feBlend in2="BackgroundImageFix" result="effect1_dropShadow_56_16"/><feBlend in="SourceGraphic" in2="effect1_dropShadow_56_16" result="shape"/></filter></defs></svg>